<mxfile host="app.diagrams.net" modified="2024-07-11T13:52:58.876Z" agent="Mozilla/5.0 (Windows NT 10.0; Win64; x64) AppleWebKit/537.36 (KHTML, like Gecko) Chrome/126.0.0.0 Safari/537.36" etag="lRm6_MOJFyt1isRDxHKy" version="24.6.4" type="github">
  <diagram name="Page-1" id="13e1069c-82ec-6db2-03f1-153e76fe0fe0">
    <mxGraphModel dx="1400" dy="804" grid="1" gridSize="10" guides="1" tooltips="1" connect="1" arrows="1" fold="1" page="1" pageScale="1" pageWidth="1100" pageHeight="850" background="none" math="0" shadow="0">
      <root>
        <mxCell id="0" />
        <mxCell id="1" parent="0" />
        <mxCell id="7baba1c4bc27f4b0-2" value=":Object" style="shape=umlLifeline;perimeter=lifelinePerimeter;whiteSpace=wrap;html=1;container=1;collapsible=0;recursiveResize=0;outlineConnect=0;rounded=1;shadow=0;comic=0;labelBackgroundColor=none;strokeWidth=1;fontFamily=Verdana;fontSize=12;align=center;" parent="1" vertex="1">
          <mxGeometry x="240" y="80" width="100" height="580" as="geometry" />
        </mxCell>
        <mxCell id="7baba1c4bc27f4b0-10" value="" style="html=1;points=[];perimeter=orthogonalPerimeter;rounded=0;shadow=0;comic=0;labelBackgroundColor=none;strokeWidth=1;fontFamily=Verdana;fontSize=12;align=center;" parent="7baba1c4bc27f4b0-2" vertex="1">
          <mxGeometry x="45" y="100" width="10" height="230" as="geometry" />
        </mxCell>
        <mxCell id="7baba1c4bc27f4b0-3" value=":Object" style="shape=umlLifeline;perimeter=lifelinePerimeter;whiteSpace=wrap;html=1;container=1;collapsible=0;recursiveResize=0;outlineConnect=0;rounded=1;shadow=0;comic=0;labelBackgroundColor=none;strokeWidth=1;fontFamily=Verdana;fontSize=12;align=center;" parent="1" vertex="1">
          <mxGeometry x="400" y="80" width="100" height="580" as="geometry" />
        </mxCell>
        <mxCell id="7baba1c4bc27f4b0-13" value="" style="html=1;points=[];perimeter=orthogonalPerimeter;rounded=0;shadow=0;comic=0;labelBackgroundColor=none;strokeWidth=1;fontFamily=Verdana;fontSize=12;align=center;" parent="7baba1c4bc27f4b0-3" vertex="1">
          <mxGeometry x="45" y="120" width="10" height="200" as="geometry" />
        </mxCell>
        <mxCell id="7baba1c4bc27f4b0-4" value=":Object" style="shape=umlLifeline;perimeter=lifelinePerimeter;whiteSpace=wrap;html=1;container=1;collapsible=0;recursiveResize=0;outlineConnect=0;rounded=1;shadow=0;comic=0;labelBackgroundColor=none;strokeWidth=1;fontFamily=Verdana;fontSize=12;align=center;" parent="1" vertex="1">
          <mxGeometry x="540" y="80" width="100" height="580" as="geometry" />
        </mxCell>
        <mxCell id="7baba1c4bc27f4b0-5" value=":Object" style="shape=umlLifeline;perimeter=lifelinePerimeter;whiteSpace=wrap;html=1;container=1;collapsible=0;recursiveResize=0;outlineConnect=0;rounded=1;shadow=0;comic=0;labelBackgroundColor=none;strokeWidth=1;fontFamily=Verdana;fontSize=12;align=center;" parent="1" vertex="1">
          <mxGeometry x="680" y="80" width="100" height="580" as="geometry" />
        </mxCell>
        <mxCell id="7baba1c4bc27f4b0-6" value=":Object" style="shape=umlLifeline;perimeter=lifelinePerimeter;whiteSpace=wrap;html=1;container=1;collapsible=0;recursiveResize=0;outlineConnect=0;rounded=1;shadow=0;comic=0;labelBackgroundColor=none;strokeWidth=1;fontFamily=Verdana;fontSize=12;align=center;" parent="1" vertex="1">
          <mxGeometry x="820" y="80" width="100" height="580" as="geometry" />
        </mxCell>
        <mxCell id="7baba1c4bc27f4b0-7" value=":Object" style="shape=umlLifeline;perimeter=lifelinePerimeter;whiteSpace=wrap;html=1;container=1;collapsible=0;recursiveResize=0;outlineConnect=0;rounded=1;shadow=0;comic=0;labelBackgroundColor=none;strokeWidth=1;fontFamily=Verdana;fontSize=12;align=center;" parent="1" vertex="1">
          <mxGeometry x="960" y="80" width="100" height="580" as="geometry" />
        </mxCell>
        <mxCell id="7baba1c4bc27f4b0-8" value=":Object" style="shape=umlLifeline;perimeter=lifelinePerimeter;whiteSpace=wrap;html=1;container=1;collapsible=0;recursiveResize=0;outlineConnect=0;rounded=1;shadow=0;comic=0;labelBackgroundColor=none;strokeWidth=1;fontFamily=Verdana;fontSize=12;align=center;" parent="1" vertex="1">
          <mxGeometry x="100" y="80" width="100" height="580" as="geometry" />
        </mxCell>
        <mxCell id="7baba1c4bc27f4b0-9" value="" style="html=1;points=[];perimeter=orthogonalPerimeter;rounded=0;shadow=0;comic=0;labelBackgroundColor=none;strokeWidth=1;fontFamily=Verdana;fontSize=12;align=center;" parent="7baba1c4bc27f4b0-8" vertex="1">
          <mxGeometry x="45" y="100" width="10" height="440" as="geometry" />
        </mxCell>
        <mxCell id="7baba1c4bc27f4b0-16" value="" style="html=1;points=[];perimeter=orthogonalPerimeter;rounded=0;shadow=0;comic=0;labelBackgroundColor=none;strokeWidth=1;fontFamily=Verdana;fontSize=12;align=center;" parent="1" vertex="1">
          <mxGeometry x="585" y="220" width="10" height="180" as="geometry" />
        </mxCell>
        <mxCell id="7baba1c4bc27f4b0-17" value="dispatch" style="html=1;verticalAlign=bottom;endArrow=block;labelBackgroundColor=none;fontFamily=Verdana;fontSize=12;edgeStyle=elbowEdgeStyle;elbow=vertical;" parent="1" source="7baba1c4bc27f4b0-13" target="7baba1c4bc27f4b0-16" edge="1">
          <mxGeometry relative="1" as="geometry">
            <mxPoint x="510" y="220" as="sourcePoint" />
            <Array as="points">
              <mxPoint x="460" y="220" />
            </Array>
          </mxGeometry>
        </mxCell>
        <mxCell id="7baba1c4bc27f4b0-19" value="" style="html=1;points=[];perimeter=orthogonalPerimeter;rounded=0;shadow=0;comic=0;labelBackgroundColor=none;strokeWidth=1;fontFamily=Verdana;fontSize=12;align=center;" parent="1" vertex="1">
          <mxGeometry x="725" y="230" width="10" height="40" as="geometry" />
        </mxCell>
        <mxCell id="7baba1c4bc27f4b0-20" value="dispatch" style="html=1;verticalAlign=bottom;endArrow=block;entryX=0;entryY=0;labelBackgroundColor=none;fontFamily=Verdana;fontSize=12;edgeStyle=elbowEdgeStyle;elbow=vertical;" parent="1" source="7baba1c4bc27f4b0-16" target="7baba1c4bc27f4b0-19" edge="1">
          <mxGeometry relative="1" as="geometry">
            <mxPoint x="650" y="230" as="sourcePoint" />
          </mxGeometry>
        </mxCell>
        <mxCell id="7baba1c4bc27f4b0-21" value="return" style="html=1;verticalAlign=bottom;endArrow=open;dashed=1;endSize=8;labelBackgroundColor=none;fontFamily=Verdana;fontSize=12;edgeStyle=elbowEdgeStyle;elbow=vertical;" parent="1" source="7baba1c4bc27f4b0-19" target="7baba1c4bc27f4b0-16" edge="1">
          <mxGeometry relative="1" as="geometry">
            <mxPoint x="650" y="306" as="targetPoint" />
            <Array as="points">
              <mxPoint x="670" y="260" />
              <mxPoint x="700" y="260" />
            </Array>
          </mxGeometry>
        </mxCell>
        <mxCell id="7baba1c4bc27f4b0-22" value="" style="html=1;points=[];perimeter=orthogonalPerimeter;rounded=0;shadow=0;comic=0;labelBackgroundColor=none;strokeWidth=1;fontFamily=Verdana;fontSize=12;align=center;" parent="1" vertex="1">
          <mxGeometry x="585" y="440" width="10" height="140" as="geometry" />
        </mxCell>
        <mxCell id="7baba1c4bc27f4b0-23" value="dispatch" style="html=1;verticalAlign=bottom;endArrow=block;entryX=0;entryY=0;labelBackgroundColor=none;fontFamily=Verdana;fontSize=12;" parent="1" source="7baba1c4bc27f4b0-9" target="7baba1c4bc27f4b0-22" edge="1">
          <mxGeometry relative="1" as="geometry">
            <mxPoint x="510" y="420" as="sourcePoint" />
          </mxGeometry>
        </mxCell>
        <mxCell id="7baba1c4bc27f4b0-25" value="" style="html=1;points=[];perimeter=orthogonalPerimeter;rounded=0;shadow=0;comic=0;labelBackgroundColor=none;strokeColor=#000000;strokeWidth=1;fillColor=#FFFFFF;fontFamily=Verdana;fontSize=12;fontColor=#000000;align=center;" parent="1" vertex="1">
          <mxGeometry x="1005" y="460" width="10" height="30" as="geometry" />
        </mxCell>
        <mxCell id="7baba1c4bc27f4b0-26" value="dispatch" style="html=1;verticalAlign=bottom;endArrow=block;entryX=0;entryY=0;labelBackgroundColor=none;fontFamily=Verdana;fontSize=12;" parent="1" source="7baba1c4bc27f4b0-22" target="7baba1c4bc27f4b0-25" edge="1">
          <mxGeometry relative="1" as="geometry">
            <mxPoint x="930" y="340" as="sourcePoint" />
          </mxGeometry>
        </mxCell>
        <mxCell id="7baba1c4bc27f4b0-27" value="return" style="html=1;verticalAlign=bottom;endArrow=open;dashed=1;endSize=8;exitX=0;exitY=0.95;labelBackgroundColor=none;fontFamily=Verdana;fontSize=12;" parent="1" source="7baba1c4bc27f4b0-25" target="7baba1c4bc27f4b0-22" edge="1">
          <mxGeometry relative="1" as="geometry">
            <mxPoint x="930" y="416" as="targetPoint" />
          </mxGeometry>
        </mxCell>
        <mxCell id="7baba1c4bc27f4b0-28" value="" style="html=1;points=[];perimeter=orthogonalPerimeter;rounded=0;shadow=0;comic=0;labelBackgroundColor=none;strokeWidth=1;fontFamily=Verdana;fontSize=12;align=center;" parent="1" vertex="1">
          <mxGeometry x="870" y="550" width="10" height="60" as="geometry" />
        </mxCell>
        <mxCell id="7baba1c4bc27f4b0-29" value="dispatch" style="html=1;verticalAlign=bottom;endArrow=block;entryX=0;entryY=0;labelBackgroundColor=none;fontFamily=Verdana;fontSize=12;edgeStyle=elbowEdgeStyle;elbow=vertical;" parent="1" source="7baba1c4bc27f4b0-37" target="7baba1c4bc27f4b0-28" edge="1">
          <mxGeometry relative="1" as="geometry">
            <mxPoint x="800" y="550" as="sourcePoint" />
          </mxGeometry>
        </mxCell>
        <mxCell id="7baba1c4bc27f4b0-30" value="return" style="html=1;verticalAlign=bottom;endArrow=open;dashed=1;endSize=8;labelBackgroundColor=none;fontFamily=Verdana;fontSize=12;edgeStyle=elbowEdgeStyle;elbow=vertical;" parent="1" source="7baba1c4bc27f4b0-28" target="7baba1c4bc27f4b0-9" edge="1">
          <mxGeometry relative="1" as="geometry">
            <mxPoint x="800" y="626" as="targetPoint" />
            <Array as="points">
              <mxPoint x="570" y="600" />
            </Array>
          </mxGeometry>
        </mxCell>
        <mxCell id="7baba1c4bc27f4b0-11" value="dispatch" style="html=1;verticalAlign=bottom;endArrow=block;entryX=0;entryY=0;labelBackgroundColor=none;fontFamily=Verdana;fontSize=12;edgeStyle=elbowEdgeStyle;elbow=vertical;" parent="1" source="7baba1c4bc27f4b0-9" target="7baba1c4bc27f4b0-10" edge="1">
          <mxGeometry relative="1" as="geometry">
            <mxPoint x="220" y="190" as="sourcePoint" />
          </mxGeometry>
        </mxCell>
        <mxCell id="7baba1c4bc27f4b0-14" value="dispatch" style="html=1;verticalAlign=bottom;endArrow=block;entryX=0;entryY=0;labelBackgroundColor=none;fontFamily=Verdana;fontSize=12;edgeStyle=elbowEdgeStyle;elbow=vertical;" parent="1" source="7baba1c4bc27f4b0-10" target="7baba1c4bc27f4b0-13" edge="1">
          <mxGeometry relative="1" as="geometry">
            <mxPoint x="370" y="200" as="sourcePoint" />
          </mxGeometry>
        </mxCell>
        <mxCell id="7baba1c4bc27f4b0-34" value="" style="html=1;points=[];perimeter=orthogonalPerimeter;rounded=0;shadow=0;comic=0;labelBackgroundColor=none;strokeWidth=1;fontFamily=Verdana;fontSize=12;align=center;" parent="1" vertex="1">
          <mxGeometry x="590" y="300" width="10" height="70" as="geometry" />
        </mxCell>
        <mxCell id="7baba1c4bc27f4b0-35" value="dispatch" style="html=1;verticalAlign=bottom;endArrow=block;labelBackgroundColor=none;fontFamily=Verdana;fontSize=12;elbow=vertical;edgeStyle=orthogonalEdgeStyle;curved=0;entryX=1;entryY=0.286;entryPerimeter=0;exitX=1.038;exitY=0.345;exitPerimeter=0;rounded=0;" parent="1" source="7baba1c4bc27f4b0-16" target="7baba1c4bc27f4b0-34" edge="1">
          <mxGeometry relative="1" as="geometry">
            <mxPoint x="465" y="230" as="sourcePoint" />
            <mxPoint x="595" y="230" as="targetPoint" />
            <Array as="points">
              <mxPoint x="650" y="282" />
              <mxPoint x="650" y="320" />
            </Array>
          </mxGeometry>
        </mxCell>
        <mxCell id="7baba1c4bc27f4b0-36" value="dispatch" style="html=1;verticalAlign=bottom;endArrow=block;labelBackgroundColor=none;fontFamily=Verdana;fontSize=12;elbow=vertical;edgeStyle=orthogonalEdgeStyle;exitX=1.066;exitY=0.713;exitPerimeter=0;rounded=0;curved=0;" parent="1" source="7baba1c4bc27f4b0-34" edge="1">
          <mxGeometry relative="1" as="geometry">
            <mxPoint x="610.3333333333333" y="350" as="sourcePoint" />
            <mxPoint x="595" y="389" as="targetPoint" />
            <Array as="points">
              <mxPoint x="640" y="350" />
              <mxPoint x="640" y="389" />
            </Array>
          </mxGeometry>
        </mxCell>
        <mxCell id="7baba1c4bc27f4b0-37" value="" style="html=1;points=[];perimeter=orthogonalPerimeter;rounded=0;shadow=0;comic=0;labelBackgroundColor=none;strokeWidth=1;fontFamily=Verdana;fontSize=12;align=center;" parent="1" vertex="1">
          <mxGeometry x="590" y="520" width="10" height="40" as="geometry" />
        </mxCell>
        <mxCell id="7baba1c4bc27f4b0-39" value="dispatch" style="html=1;verticalAlign=bottom;endArrow=block;labelBackgroundColor=none;fontFamily=Verdana;fontSize=12;elbow=vertical;edgeStyle=orthogonalEdgeStyle;curved=0;entryX=1;entryY=0.286;entryPerimeter=0;exitX=1.038;exitY=0.345;exitPerimeter=0;rounded=0;" parent="1" edge="1">
          <mxGeometry relative="1" as="geometry">
            <mxPoint x="595.3333333333335" y="501" as="sourcePoint" />
            <mxPoint x="600.3333333333335" y="539.3333333333334" as="targetPoint" />
            <Array as="points">
              <mxPoint x="650" y="501" />
              <mxPoint x="650" y="539" />
            </Array>
          </mxGeometry>
        </mxCell>
        <mxCell id="7baba1c4bc27f4b0-40" value="Note" style="shape=note;whiteSpace=wrap;html=1;size=14;verticalAlign=top;align=left;spacingTop=-6;rounded=0;shadow=0;comic=0;labelBackgroundColor=none;strokeWidth=1;fontFamily=Verdana;fontSize=12" parent="1" vertex="1">
          <mxGeometry x="100" y="30" width="100" height="35" as="geometry" />
        </mxCell>
        <mxCell id="7baba1c4bc27f4b0-41" value="Note" style="shape=note;whiteSpace=wrap;html=1;size=14;verticalAlign=top;align=left;spacingTop=-6;rounded=0;shadow=0;comic=0;labelBackgroundColor=none;strokeWidth=1;fontFamily=Verdana;fontSize=12" parent="1" vertex="1">
          <mxGeometry x="240" y="30" width="100" height="35" as="geometry" />
        </mxCell>
        <mxCell id="7baba1c4bc27f4b0-42" value="Note" style="shape=note;whiteSpace=wrap;html=1;size=14;verticalAlign=top;align=left;spacingTop=-6;rounded=0;shadow=0;comic=0;labelBackgroundColor=none;strokeWidth=1;fontFamily=Verdana;fontSize=12" parent="1" vertex="1">
          <mxGeometry x="400" y="30" width="100" height="35" as="geometry" />
        </mxCell>
        <mxCell id="7baba1c4bc27f4b0-43" value="Note" style="shape=note;whiteSpace=wrap;html=1;size=14;verticalAlign=top;align=left;spacingTop=-6;rounded=0;shadow=0;comic=0;labelBackgroundColor=none;strokeWidth=1;fontFamily=Verdana;fontSize=12" parent="1" vertex="1">
          <mxGeometry x="540" y="30" width="100" height="35" as="geometry" />
        </mxCell>
        <mxCell id="7baba1c4bc27f4b0-44" value="Note" style="shape=note;whiteSpace=wrap;html=1;size=14;verticalAlign=top;align=left;spacingTop=-6;rounded=0;shadow=0;comic=0;labelBackgroundColor=none;strokeWidth=1;fontFamily=Verdana;fontSize=12" parent="1" vertex="1">
          <mxGeometry x="680" y="30" width="100" height="35" as="geometry" />
        </mxCell>
        <mxCell id="7baba1c4bc27f4b0-45" value="Note" style="shape=note;whiteSpace=wrap;html=1;size=14;verticalAlign=top;align=left;spacingTop=-6;rounded=0;shadow=0;comic=0;labelBackgroundColor=none;strokeWidth=1;fontFamily=Verdana;fontSize=12" parent="1" vertex="1">
          <mxGeometry x="820" y="30" width="100" height="35" as="geometry" />
        </mxCell>
        <mxCell id="7baba1c4bc27f4b0-46" value="Note" style="shape=note;whiteSpace=wrap;html=1;size=14;verticalAlign=top;align=left;spacingTop=-6;rounded=0;shadow=0;comic=0;labelBackgroundColor=none;strokeWidth=1;fontFamily=Verdana;fontSize=12" parent="1" vertex="1">
          <mxGeometry x="960" y="30" width="100" height="35" as="geometry" />
        </mxCell>
        <mxCell id="bUuHSahdw5FENGJKF_yK-5" value="User Super&amp;nbsp;&lt;div&gt;dan Admin&lt;/div&gt;" style="shape=umlLifeline;perimeter=lifelinePerimeter;html=1;container=1;dropTarget=0;collapsible=0;recursiveResize=0;outlineConnect=0;portConstraint=eastwest;newEdgeStyle={&quot;curved&quot;:0,&quot;rounded&quot;:0};participant=umlActor;labelPosition=center;verticalLabelPosition=top;align=center;verticalAlign=bottom;" parent="1" vertex="1">
          <mxGeometry x="1160" y="80" width="20" height="300" as="geometry" />
        </mxCell>
        <mxCell id="bUuHSahdw5FENGJKF_yK-9" value="" style="html=1;points=[[0,0,0,0,5],[0,1,0,0,-5],[1,0,0,0,5],[1,1,0,0,-5]];perimeter=orthogonalPerimeter;outlineConnect=0;targetShapes=umlLifeline;portConstraint=eastwest;newEdgeStyle={&quot;curved&quot;:0,&quot;rounded&quot;:0};" parent="bUuHSahdw5FENGJKF_yK-5" vertex="1">
          <mxGeometry x="5" y="60" width="10" height="60" as="geometry" />
        </mxCell>
        <mxCell id="bUuHSahdw5FENGJKF_yK-6" value="View Login" style="shape=umlLifeline;perimeter=lifelinePerimeter;html=1;container=1;dropTarget=0;collapsible=0;recursiveResize=0;outlineConnect=0;portConstraint=eastwest;newEdgeStyle={&quot;curved&quot;:0,&quot;rounded&quot;:0};participant=umlBoundary;labelPosition=center;verticalLabelPosition=top;align=center;verticalAlign=bottom;" parent="1" vertex="1">
          <mxGeometry x="1280" y="80" width="50" height="300" as="geometry" />
        </mxCell>
        <mxCell id="bUuHSahdw5FENGJKF_yK-11" value="" style="html=1;points=[[0,0,0,0,5],[0,1,0,0,-5],[1,0,0,0,5],[1,1,0,0,-5]];perimeter=orthogonalPerimeter;outlineConnect=0;targetShapes=umlLifeline;portConstraint=eastwest;newEdgeStyle={&quot;curved&quot;:0,&quot;rounded&quot;:0};" parent="bUuHSahdw5FENGJKF_yK-6" vertex="1">
          <mxGeometry x="20" y="60" width="10" height="180" as="geometry" />
        </mxCell>
        <mxCell id="bUuHSahdw5FENGJKF_yK-7" value="Model User" style="shape=umlLifeline;perimeter=lifelinePerimeter;whiteSpace=wrap;html=1;container=1;dropTarget=0;collapsible=0;recursiveResize=0;outlineConnect=0;portConstraint=eastwest;newEdgeStyle={&quot;curved&quot;:0,&quot;rounded&quot;:0};participant=umlEntity;labelPosition=center;verticalLabelPosition=top;align=center;verticalAlign=bottom;" parent="1" vertex="1">
          <mxGeometry x="1530" y="80" width="40" height="300" as="geometry" />
        </mxCell>
        <mxCell id="bUuHSahdw5FENGJKF_yK-18" value="" style="html=1;points=[[0,0,0,0,5],[0,1,0,0,-5],[1,0,0,0,5],[1,1,0,0,-5]];perimeter=orthogonalPerimeter;outlineConnect=0;targetShapes=umlLifeline;portConstraint=eastwest;newEdgeStyle={&quot;curved&quot;:0,&quot;rounded&quot;:0};" parent="bUuHSahdw5FENGJKF_yK-7" vertex="1">
          <mxGeometry x="15" y="160" width="10" height="30" as="geometry" />
        </mxCell>
        <mxCell id="bUuHSahdw5FENGJKF_yK-20" value="Find Data" style="html=1;verticalAlign=middle;endArrow=block;curved=0;rounded=0;labelBackgroundColor=none;labelPosition=right;verticalLabelPosition=middle;align=left;" parent="bUuHSahdw5FENGJKF_yK-7" source="bUuHSahdw5FENGJKF_yK-18" target="bUuHSahdw5FENGJKF_yK-18" edge="1">
          <mxGeometry x="-0.0028" width="80" relative="1" as="geometry">
            <mxPoint x="20" y="160" as="sourcePoint" />
            <mxPoint x="130" y="160" as="targetPoint" />
            <mxPoint as="offset" />
          </mxGeometry>
        </mxCell>
        <mxCell id="bUuHSahdw5FENGJKF_yK-8" value="Controller Autentikasi" style="shape=umlLifeline;perimeter=lifelinePerimeter;html=1;container=1;dropTarget=0;collapsible=0;recursiveResize=0;outlineConnect=0;portConstraint=eastwest;newEdgeStyle={&quot;curved&quot;:0,&quot;rounded&quot;:0};participant=umlControl;whiteSpace=wrap;labelPosition=center;verticalLabelPosition=top;align=center;verticalAlign=bottom;" parent="1" vertex="1">
          <mxGeometry x="1410" y="80" width="40" height="300" as="geometry" />
        </mxCell>
        <mxCell id="bUuHSahdw5FENGJKF_yK-16" value="" style="html=1;points=[[0,0,0,0,5],[0,1,0,0,-5],[1,0,0,0,5],[1,1,0,0,-5]];perimeter=orthogonalPerimeter;outlineConnect=0;targetShapes=umlLifeline;portConstraint=eastwest;newEdgeStyle={&quot;curved&quot;:0,&quot;rounded&quot;:0};" parent="bUuHSahdw5FENGJKF_yK-8" vertex="1">
          <mxGeometry x="15" y="140" width="10" height="20" as="geometry" />
        </mxCell>
        <mxCell id="bUuHSahdw5FENGJKF_yK-21" value="" style="html=1;points=[[0,0,0,0,5],[0,1,0,0,-5],[1,0,0,0,5],[1,1,0,0,-5]];perimeter=orthogonalPerimeter;outlineConnect=0;targetShapes=umlLifeline;portConstraint=eastwest;newEdgeStyle={&quot;curved&quot;:0,&quot;rounded&quot;:0};" parent="bUuHSahdw5FENGJKF_yK-8" vertex="1">
          <mxGeometry x="15" y="190" width="10" height="70" as="geometry" />
        </mxCell>
        <mxCell id="exqZRgO2Eq1xU3M3Er-l-4" value="Matching Data" style="html=1;verticalAlign=middle;endArrow=block;rounded=0;labelBackgroundColor=none;labelPosition=right;verticalLabelPosition=middle;align=left;edgeStyle=orthogonalEdgeStyle;" edge="1" parent="bUuHSahdw5FENGJKF_yK-8">
          <mxGeometry x="0.1429" width="80" relative="1" as="geometry">
            <mxPoint x="25" y="200" as="sourcePoint" />
            <mxPoint x="25" y="230" as="targetPoint" />
            <mxPoint as="offset" />
            <Array as="points">
              <mxPoint x="25" y="210" />
              <mxPoint x="45" y="210" />
              <mxPoint x="45" y="230" />
            </Array>
          </mxGeometry>
        </mxCell>
        <mxCell id="bUuHSahdw5FENGJKF_yK-13" value="Akses View Login" style="html=1;verticalAlign=bottom;endArrow=block;curved=0;rounded=0;labelBackgroundColor=none;labelPosition=center;verticalLabelPosition=top;align=center;" parent="1" target="bUuHSahdw5FENGJKF_yK-11" edge="1">
          <mxGeometry x="-0.0028" width="80" relative="1" as="geometry">
            <mxPoint x="1175" y="140" as="sourcePoint" />
            <mxPoint x="1260" y="140" as="targetPoint" />
            <mxPoint as="offset" />
          </mxGeometry>
        </mxCell>
        <mxCell id="bUuHSahdw5FENGJKF_yK-14" value="Form Login" style="html=1;verticalAlign=bottom;endArrow=open;dashed=1;endSize=8;curved=0;rounded=0;" parent="1" edge="1">
          <mxGeometry relative="1" as="geometry">
            <mxPoint x="1300" y="160" as="sourcePoint" />
            <mxPoint x="1175" y="160" as="targetPoint" />
          </mxGeometry>
        </mxCell>
        <mxCell id="bUuHSahdw5FENGJKF_yK-15" value="Input Email dan&lt;div&gt;Password&lt;/div&gt;" style="html=1;verticalAlign=bottom;endArrow=block;curved=0;rounded=0;labelBackgroundColor=none;labelPosition=center;verticalLabelPosition=top;align=center;" parent="1" edge="1">
          <mxGeometry x="-0.0028" width="80" relative="1" as="geometry">
            <mxPoint x="1175" y="200" as="sourcePoint" />
            <mxPoint x="1300" y="200" as="targetPoint" />
            <mxPoint as="offset" />
          </mxGeometry>
        </mxCell>
        <mxCell id="bUuHSahdw5FENGJKF_yK-17" value="Post Data" style="html=1;verticalAlign=bottom;endArrow=block;curved=0;rounded=0;labelBackgroundColor=none;labelPosition=center;verticalLabelPosition=top;align=center;" parent="1" source="bUuHSahdw5FENGJKF_yK-11" target="bUuHSahdw5FENGJKF_yK-16" edge="1">
          <mxGeometry x="-0.0028" width="80" relative="1" as="geometry">
            <mxPoint x="1300" y="220" as="sourcePoint" />
            <mxPoint x="1425" y="220" as="targetPoint" />
            <mxPoint as="offset" />
            <Array as="points">
              <mxPoint x="1370" y="220" />
            </Array>
          </mxGeometry>
        </mxCell>
        <mxCell id="bUuHSahdw5FENGJKF_yK-19" value="Get Data" style="html=1;verticalAlign=bottom;endArrow=block;curved=0;rounded=0;labelBackgroundColor=none;labelPosition=center;verticalLabelPosition=top;align=center;" parent="1" source="bUuHSahdw5FENGJKF_yK-16" target="bUuHSahdw5FENGJKF_yK-18" edge="1">
          <mxGeometry x="-0.0028" width="80" relative="1" as="geometry">
            <mxPoint x="1430" y="240" as="sourcePoint" />
            <mxPoint x="1545" y="240" as="targetPoint" />
            <mxPoint as="offset" />
          </mxGeometry>
        </mxCell>
        <mxCell id="bUuHSahdw5FENGJKF_yK-23" value="Return Data" style="html=1;verticalAlign=bottom;endArrow=open;dashed=1;endSize=8;curved=0;rounded=0;" parent="1" source="bUuHSahdw5FENGJKF_yK-18" target="bUuHSahdw5FENGJKF_yK-21" edge="1">
          <mxGeometry relative="1" as="geometry">
            <mxPoint x="1530" y="300" as="sourcePoint" />
            <mxPoint x="1405" y="300" as="targetPoint" />
          </mxGeometry>
        </mxCell>
        <mxCell id="exqZRgO2Eq1xU3M3Er-l-6" value="Return Pesan&lt;div&gt;Login Gagal&lt;/div&gt;" style="html=1;verticalAlign=bottom;endArrow=open;dashed=1;endSize=8;curved=0;rounded=0;" edge="1" parent="1" source="bUuHSahdw5FENGJKF_yK-21" target="bUuHSahdw5FENGJKF_yK-11">
          <mxGeometry relative="1" as="geometry">
            <mxPoint x="1420" y="330" as="sourcePoint" />
            <mxPoint x="1310" y="330" as="targetPoint" />
            <Array as="points">
              <mxPoint x="1360" y="320" />
            </Array>
          </mxGeometry>
        </mxCell>
        <mxCell id="exqZRgO2Eq1xU3M3Er-l-7" value="View&lt;div&gt;Dashboard&lt;/div&gt;" style="shape=umlLifeline;perimeter=lifelinePerimeter;html=1;container=1;dropTarget=0;collapsible=0;recursiveResize=0;outlineConnect=0;portConstraint=eastwest;newEdgeStyle={&quot;curved&quot;:0,&quot;rounded&quot;:0};participant=umlBoundary;labelPosition=center;verticalLabelPosition=top;align=center;verticalAlign=bottom;" vertex="1" parent="1">
          <mxGeometry x="1640" y="80" width="50" height="300" as="geometry" />
        </mxCell>
        <mxCell id="exqZRgO2Eq1xU3M3Er-l-8" value="" style="html=1;points=[[0,0,0,0,5],[0,1,0,0,-5],[1,0,0,0,5],[1,1,0,0,-5]];perimeter=orthogonalPerimeter;outlineConnect=0;targetShapes=umlLifeline;portConstraint=eastwest;newEdgeStyle={&quot;curved&quot;:0,&quot;rounded&quot;:0};" vertex="1" parent="exqZRgO2Eq1xU3M3Er-l-7">
          <mxGeometry x="20" y="250" width="10" height="30" as="geometry" />
        </mxCell>
        <mxCell id="exqZRgO2Eq1xU3M3Er-l-9" value="Redirect View Dashboard" style="html=1;verticalAlign=bottom;endArrow=block;curved=0;rounded=0;labelBackgroundColor=default;labelPosition=center;verticalLabelPosition=top;align=center;" edge="1" parent="1" source="bUuHSahdw5FENGJKF_yK-21" target="exqZRgO2Eq1xU3M3Er-l-8">
          <mxGeometry x="-0.0028" width="80" relative="1" as="geometry">
            <mxPoint x="1445" y="334.76" as="sourcePoint" />
            <mxPoint x="1555" y="334.76" as="targetPoint" />
            <mxPoint as="offset" />
          </mxGeometry>
        </mxCell>
        <mxCell id="exqZRgO2Eq1xU3M3Er-l-10" value="User Super" style="shape=umlLifeline;perimeter=lifelinePerimeter;html=1;container=1;dropTarget=0;collapsible=0;recursiveResize=0;outlineConnect=0;portConstraint=eastwest;newEdgeStyle={&quot;curved&quot;:0,&quot;rounded&quot;:0};participant=umlActor;labelPosition=center;verticalLabelPosition=top;align=center;verticalAlign=bottom;" vertex="1" parent="1">
          <mxGeometry x="1160" y="440" width="20" height="340" as="geometry" />
        </mxCell>
        <mxCell id="exqZRgO2Eq1xU3M3Er-l-11" value="" style="html=1;points=[[0,0,0,0,5],[0,1,0,0,-5],[1,0,0,0,5],[1,1,0,0,-5]];perimeter=orthogonalPerimeter;outlineConnect=0;targetShapes=umlLifeline;portConstraint=eastwest;newEdgeStyle={&quot;curved&quot;:0,&quot;rounded&quot;:0};" vertex="1" parent="exqZRgO2Eq1xU3M3Er-l-10">
          <mxGeometry x="5" y="70" width="10" height="90" as="geometry" />
        </mxCell>
        <mxCell id="exqZRgO2Eq1xU3M3Er-l-12" value="View Form&lt;div&gt;Tambah Data&lt;/div&gt;" style="shape=umlLifeline;perimeter=lifelinePerimeter;html=1;container=1;dropTarget=0;collapsible=0;recursiveResize=0;outlineConnect=0;portConstraint=eastwest;newEdgeStyle={&quot;curved&quot;:0,&quot;rounded&quot;:0};participant=umlBoundary;labelPosition=center;verticalLabelPosition=top;align=center;verticalAlign=bottom;" vertex="1" parent="1">
          <mxGeometry x="1410" y="440" width="50" height="340" as="geometry" />
        </mxCell>
        <mxCell id="exqZRgO2Eq1xU3M3Er-l-13" value="" style="html=1;points=[[0,0,0,0,5],[0,1,0,0,-5],[1,0,0,0,5],[1,1,0,0,-5]];perimeter=orthogonalPerimeter;outlineConnect=0;targetShapes=umlLifeline;portConstraint=eastwest;newEdgeStyle={&quot;curved&quot;:0,&quot;rounded&quot;:0};" vertex="1" parent="exqZRgO2Eq1xU3M3Er-l-12">
          <mxGeometry x="20" y="120" width="10" height="150" as="geometry" />
        </mxCell>
        <mxCell id="exqZRgO2Eq1xU3M3Er-l-14" value="Model User" style="shape=umlLifeline;perimeter=lifelinePerimeter;whiteSpace=wrap;html=1;container=1;dropTarget=0;collapsible=0;recursiveResize=0;outlineConnect=0;portConstraint=eastwest;newEdgeStyle={&quot;curved&quot;:0,&quot;rounded&quot;:0};participant=umlEntity;labelPosition=center;verticalLabelPosition=top;align=center;verticalAlign=bottom;" vertex="1" parent="1">
          <mxGeometry x="1660" y="440" width="40" height="340" as="geometry" />
        </mxCell>
        <mxCell id="exqZRgO2Eq1xU3M3Er-l-15" value="" style="html=1;points=[[0,0,0,0,5],[0,1,0,0,-5],[1,0,0,0,5],[1,1,0,0,-5]];perimeter=orthogonalPerimeter;outlineConnect=0;targetShapes=umlLifeline;portConstraint=eastwest;newEdgeStyle={&quot;curved&quot;:0,&quot;rounded&quot;:0};" vertex="1" parent="exqZRgO2Eq1xU3M3Er-l-14">
          <mxGeometry x="15" y="230" width="10" height="30" as="geometry" />
        </mxCell>
        <mxCell id="exqZRgO2Eq1xU3M3Er-l-17" value="Controller User" style="shape=umlLifeline;perimeter=lifelinePerimeter;html=1;container=1;dropTarget=0;collapsible=0;recursiveResize=0;outlineConnect=0;portConstraint=eastwest;newEdgeStyle={&quot;curved&quot;:0,&quot;rounded&quot;:0};participant=umlControl;whiteSpace=wrap;labelPosition=center;verticalLabelPosition=top;align=center;verticalAlign=bottom;" vertex="1" parent="1">
          <mxGeometry x="1540" y="440" width="40" height="340" as="geometry" />
        </mxCell>
        <mxCell id="exqZRgO2Eq1xU3M3Er-l-18" value="" style="html=1;points=[[0,0,0,0,5],[0,1,0,0,-5],[1,0,0,0,5],[1,1,0,0,-5]];perimeter=orthogonalPerimeter;outlineConnect=0;targetShapes=umlLifeline;portConstraint=eastwest;newEdgeStyle={&quot;curved&quot;:0,&quot;rounded&quot;:0};" vertex="1" parent="exqZRgO2Eq1xU3M3Er-l-17">
          <mxGeometry x="15" y="170" width="10" height="60" as="geometry" />
        </mxCell>
        <mxCell id="exqZRgO2Eq1xU3M3Er-l-19" value="" style="html=1;points=[[0,0,0,0,5],[0,1,0,0,-5],[1,0,0,0,5],[1,1,0,0,-5]];perimeter=orthogonalPerimeter;outlineConnect=0;targetShapes=umlLifeline;portConstraint=eastwest;newEdgeStyle={&quot;curved&quot;:0,&quot;rounded&quot;:0};" vertex="1" parent="exqZRgO2Eq1xU3M3Er-l-17">
          <mxGeometry x="15" y="260" width="10" height="40" as="geometry" />
        </mxCell>
        <mxCell id="exqZRgO2Eq1xU3M3Er-l-41" value="Validating Data" style="html=1;verticalAlign=middle;endArrow=block;rounded=0;labelBackgroundColor=none;labelPosition=right;verticalLabelPosition=middle;align=left;edgeStyle=orthogonalEdgeStyle;" edge="1" parent="exqZRgO2Eq1xU3M3Er-l-17" source="exqZRgO2Eq1xU3M3Er-l-18" target="exqZRgO2Eq1xU3M3Er-l-18">
          <mxGeometry width="80" relative="1" as="geometry">
            <mxPoint x="35" y="150" as="sourcePoint" />
            <mxPoint x="35" y="170" as="targetPoint" />
            <mxPoint as="offset" />
            <Array as="points">
              <mxPoint x="55" y="180" />
              <mxPoint x="55" y="200" />
            </Array>
          </mxGeometry>
        </mxCell>
        <mxCell id="exqZRgO2Eq1xU3M3Er-l-21" value="Akses View&lt;div&gt;Kelola&amp;nbsp;&lt;span style=&quot;background-color: initial;&quot;&gt;User Admin&lt;/span&gt;&lt;/div&gt;" style="html=1;verticalAlign=bottom;endArrow=block;curved=0;rounded=0;labelBackgroundColor=none;labelPosition=center;verticalLabelPosition=top;align=center;" edge="1" parent="1" target="exqZRgO2Eq1xU3M3Er-l-114" source="exqZRgO2Eq1xU3M3Er-l-11">
          <mxGeometry x="-0.0028" width="80" relative="1" as="geometry">
            <mxPoint x="1175" y="509.5" as="sourcePoint" />
            <mxPoint x="1270" y="510" as="targetPoint" />
            <mxPoint as="offset" />
            <Array as="points">
              <mxPoint x="1240" y="510" />
            </Array>
          </mxGeometry>
        </mxCell>
        <mxCell id="exqZRgO2Eq1xU3M3Er-l-22" value="Tabel Data User Admin" style="html=1;verticalAlign=bottom;endArrow=open;dashed=1;endSize=8;curved=0;rounded=0;labelBackgroundColor=none;" edge="1" parent="1" source="exqZRgO2Eq1xU3M3Er-l-114" target="exqZRgO2Eq1xU3M3Er-l-11">
          <mxGeometry relative="1" as="geometry">
            <mxPoint x="1300" y="539.72" as="sourcePoint" />
            <mxPoint x="1175" y="539.72" as="targetPoint" />
            <Array as="points">
              <mxPoint x="1240" y="540" />
            </Array>
          </mxGeometry>
        </mxCell>
        <mxCell id="exqZRgO2Eq1xU3M3Er-l-24" value="Post Data" style="html=1;verticalAlign=bottom;endArrow=block;curved=0;rounded=0;labelBackgroundColor=none;labelPosition=center;verticalLabelPosition=top;align=center;" edge="1" parent="1" source="exqZRgO2Eq1xU3M3Er-l-13" target="exqZRgO2Eq1xU3M3Er-l-18">
          <mxGeometry x="-0.0028" width="80" relative="1" as="geometry">
            <mxPoint x="1430" y="580" as="sourcePoint" />
            <mxPoint x="1555" y="580" as="targetPoint" />
            <mxPoint as="offset" />
            <Array as="points">
              <mxPoint x="1500" y="610" />
            </Array>
          </mxGeometry>
        </mxCell>
        <mxCell id="exqZRgO2Eq1xU3M3Er-l-25" value="Post Data" style="html=1;verticalAlign=bottom;endArrow=block;curved=0;rounded=0;labelBackgroundColor=none;labelPosition=center;verticalLabelPosition=top;align=center;" edge="1" parent="1" source="exqZRgO2Eq1xU3M3Er-l-18" target="exqZRgO2Eq1xU3M3Er-l-15">
          <mxGeometry x="-0.0028" width="80" relative="1" as="geometry">
            <mxPoint x="1560" y="600" as="sourcePoint" />
            <mxPoint x="1675" y="600" as="targetPoint" />
            <mxPoint as="offset" />
            <Array as="points">
              <mxPoint x="1590" y="670" />
            </Array>
          </mxGeometry>
        </mxCell>
        <mxCell id="exqZRgO2Eq1xU3M3Er-l-26" value="Return Status" style="html=1;verticalAlign=bottom;endArrow=open;dashed=1;endSize=8;curved=0;rounded=0;" edge="1" parent="1" source="exqZRgO2Eq1xU3M3Er-l-15" target="exqZRgO2Eq1xU3M3Er-l-19">
          <mxGeometry relative="1" as="geometry">
            <mxPoint x="1660" y="660" as="sourcePoint" />
            <mxPoint x="1535" y="660" as="targetPoint" />
            <Array as="points" />
          </mxGeometry>
        </mxCell>
        <mxCell id="exqZRgO2Eq1xU3M3Er-l-27" value="Return Pesan&lt;div&gt;Gagal&lt;/div&gt;" style="html=1;verticalAlign=bottom;endArrow=open;dashed=1;endSize=8;curved=0;rounded=0;" edge="1" parent="1" source="exqZRgO2Eq1xU3M3Er-l-19" target="exqZRgO2Eq1xU3M3Er-l-13">
          <mxGeometry relative="1" as="geometry">
            <mxPoint x="1550" y="690" as="sourcePoint" />
            <mxPoint x="1440" y="690" as="targetPoint" />
            <Array as="points">
              <mxPoint x="1490" y="710" />
            </Array>
          </mxGeometry>
        </mxCell>
        <mxCell id="exqZRgO2Eq1xU3M3Er-l-28" value="View&amp;nbsp;&lt;span style=&quot;background-color: initial;&quot;&gt;Kelola&amp;nbsp;&lt;/span&gt;&lt;div&gt;User Admin&lt;/div&gt;" style="shape=umlLifeline;perimeter=lifelinePerimeter;html=1;container=1;dropTarget=0;collapsible=0;recursiveResize=0;outlineConnect=0;portConstraint=eastwest;newEdgeStyle={&quot;curved&quot;:0,&quot;rounded&quot;:0};participant=umlBoundary;labelPosition=center;verticalLabelPosition=top;align=center;verticalAlign=bottom;" vertex="1" parent="1">
          <mxGeometry x="1280" y="440" width="50" height="340" as="geometry" />
        </mxCell>
        <mxCell id="exqZRgO2Eq1xU3M3Er-l-29" value="" style="html=1;points=[[0,0,0,0,5],[0,1,0,0,-5],[1,0,0,0,5],[1,1,0,0,-5]];perimeter=orthogonalPerimeter;outlineConnect=0;targetShapes=umlLifeline;portConstraint=eastwest;newEdgeStyle={&quot;curved&quot;:0,&quot;rounded&quot;:0};" vertex="1" parent="exqZRgO2Eq1xU3M3Er-l-28">
          <mxGeometry x="20" y="300" width="10" height="20" as="geometry" />
        </mxCell>
        <mxCell id="exqZRgO2Eq1xU3M3Er-l-16" value="Insert Data" style="html=1;verticalAlign=middle;endArrow=block;rounded=0;labelBackgroundColor=none;labelPosition=right;verticalLabelPosition=middle;align=left;edgeStyle=orthogonalEdgeStyle;" edge="1" parent="1" source="exqZRgO2Eq1xU3M3Er-l-15" target="exqZRgO2Eq1xU3M3Er-l-15">
          <mxGeometry x="-0.0028" width="80" relative="1" as="geometry">
            <mxPoint x="1680" y="600" as="sourcePoint" />
            <mxPoint x="1790" y="600" as="targetPoint" />
            <mxPoint as="offset" />
          </mxGeometry>
        </mxCell>
        <mxCell id="exqZRgO2Eq1xU3M3Er-l-42" value="Return Pesan&lt;div&gt;Kesalahan&lt;/div&gt;" style="html=1;verticalAlign=bottom;endArrow=open;dashed=1;endSize=8;curved=0;rounded=0;" edge="1" parent="1" source="exqZRgO2Eq1xU3M3Er-l-18" target="exqZRgO2Eq1xU3M3Er-l-13">
          <mxGeometry relative="1" as="geometry">
            <mxPoint x="1555" y="620" as="sourcePoint" />
            <mxPoint x="1440" y="620" as="targetPoint" />
            <Array as="points">
              <mxPoint x="1500" y="650" />
            </Array>
          </mxGeometry>
        </mxCell>
        <mxCell id="exqZRgO2Eq1xU3M3Er-l-43" value="User Super" style="shape=umlLifeline;perimeter=lifelinePerimeter;html=1;container=1;dropTarget=0;collapsible=0;recursiveResize=0;outlineConnect=0;portConstraint=eastwest;newEdgeStyle={&quot;curved&quot;:0,&quot;rounded&quot;:0};participant=umlActor;labelPosition=center;verticalLabelPosition=top;align=center;verticalAlign=bottom;" vertex="1" parent="1">
          <mxGeometry x="1160" y="840" width="20" height="380" as="geometry" />
        </mxCell>
        <mxCell id="exqZRgO2Eq1xU3M3Er-l-44" value="" style="html=1;points=[[0,0,0,0,5],[0,1,0,0,-5],[1,0,0,0,5],[1,1,0,0,-5]];perimeter=orthogonalPerimeter;outlineConnect=0;targetShapes=umlLifeline;portConstraint=eastwest;newEdgeStyle={&quot;curved&quot;:0,&quot;rounded&quot;:0};" vertex="1" parent="exqZRgO2Eq1xU3M3Er-l-43">
          <mxGeometry x="5" y="70" width="10" height="150" as="geometry" />
        </mxCell>
        <mxCell id="exqZRgO2Eq1xU3M3Er-l-45" value="View&amp;nbsp;&lt;span style=&quot;background-color: initial;&quot;&gt;Kelola&lt;/span&gt;&lt;div&gt;&lt;span style=&quot;background-color: initial;&quot;&gt;User Admin&lt;/span&gt;&lt;/div&gt;" style="shape=umlLifeline;perimeter=lifelinePerimeter;html=1;container=1;dropTarget=0;collapsible=0;recursiveResize=0;outlineConnect=0;portConstraint=eastwest;newEdgeStyle={&quot;curved&quot;:0,&quot;rounded&quot;:0};participant=umlBoundary;labelPosition=center;verticalLabelPosition=top;align=center;verticalAlign=bottom;" vertex="1" parent="1">
          <mxGeometry x="1280" y="840" width="50" height="380" as="geometry" />
        </mxCell>
        <mxCell id="exqZRgO2Eq1xU3M3Er-l-46" value="" style="html=1;points=[[0,0,0,0,5],[0,1,0,0,-5],[1,0,0,0,5],[1,1,0,0,-5]];perimeter=orthogonalPerimeter;outlineConnect=0;targetShapes=umlLifeline;portConstraint=eastwest;newEdgeStyle={&quot;curved&quot;:0,&quot;rounded&quot;:0};" vertex="1" parent="exqZRgO2Eq1xU3M3Er-l-45">
          <mxGeometry x="20" y="70" width="10" height="70" as="geometry" />
        </mxCell>
        <mxCell id="exqZRgO2Eq1xU3M3Er-l-113" value="" style="html=1;points=[[0,0,0,0,5],[0,1,0,0,-5],[1,0,0,0,5],[1,1,0,0,-5]];perimeter=orthogonalPerimeter;outlineConnect=0;targetShapes=umlLifeline;portConstraint=eastwest;newEdgeStyle={&quot;curved&quot;:0,&quot;rounded&quot;:0};" vertex="1" parent="exqZRgO2Eq1xU3M3Er-l-45">
          <mxGeometry x="20" y="340" width="10" height="20" as="geometry" />
        </mxCell>
        <mxCell id="exqZRgO2Eq1xU3M3Er-l-47" value="Model User" style="shape=umlLifeline;perimeter=lifelinePerimeter;whiteSpace=wrap;html=1;container=1;dropTarget=0;collapsible=0;recursiveResize=0;outlineConnect=0;portConstraint=eastwest;newEdgeStyle={&quot;curved&quot;:0,&quot;rounded&quot;:0};participant=umlEntity;labelPosition=center;verticalLabelPosition=top;align=center;verticalAlign=bottom;" vertex="1" parent="1">
          <mxGeometry x="1650" y="840" width="40" height="380" as="geometry" />
        </mxCell>
        <mxCell id="exqZRgO2Eq1xU3M3Er-l-48" value="" style="html=1;points=[[0,0,0,0,5],[0,1,0,0,-5],[1,0,0,0,5],[1,1,0,0,-5]];perimeter=orthogonalPerimeter;outlineConnect=0;targetShapes=umlLifeline;portConstraint=eastwest;newEdgeStyle={&quot;curved&quot;:0,&quot;rounded&quot;:0};" vertex="1" parent="exqZRgO2Eq1xU3M3Er-l-47">
          <mxGeometry x="15" y="150" width="10" height="30" as="geometry" />
        </mxCell>
        <mxCell id="exqZRgO2Eq1xU3M3Er-l-72" value="" style="html=1;points=[[0,0,0,0,5],[0,1,0,0,-5],[1,0,0,0,5],[1,1,0,0,-5]];perimeter=orthogonalPerimeter;outlineConnect=0;targetShapes=umlLifeline;portConstraint=eastwest;newEdgeStyle={&quot;curved&quot;:0,&quot;rounded&quot;:0};" vertex="1" parent="exqZRgO2Eq1xU3M3Er-l-47">
          <mxGeometry x="15" y="270" width="10" height="30" as="geometry" />
        </mxCell>
        <mxCell id="exqZRgO2Eq1xU3M3Er-l-75" value="Update Data" style="html=1;verticalAlign=middle;endArrow=block;rounded=0;labelBackgroundColor=none;labelPosition=right;verticalLabelPosition=middle;align=left;edgeStyle=orthogonalEdgeStyle;" edge="1" parent="exqZRgO2Eq1xU3M3Er-l-47" source="exqZRgO2Eq1xU3M3Er-l-72" target="exqZRgO2Eq1xU3M3Er-l-72">
          <mxGeometry x="-0.0028" width="80" relative="1" as="geometry">
            <mxPoint x="-100" y="249.43000000000006" as="sourcePoint" />
            <mxPoint x="10" y="249.43000000000006" as="targetPoint" />
            <mxPoint as="offset" />
          </mxGeometry>
        </mxCell>
        <mxCell id="exqZRgO2Eq1xU3M3Er-l-49" value="Controller User" style="shape=umlLifeline;perimeter=lifelinePerimeter;html=1;container=1;dropTarget=0;collapsible=0;recursiveResize=0;outlineConnect=0;portConstraint=eastwest;newEdgeStyle={&quot;curved&quot;:0,&quot;rounded&quot;:0};participant=umlControl;whiteSpace=wrap;labelPosition=center;verticalLabelPosition=top;align=center;verticalAlign=bottom;" vertex="1" parent="1">
          <mxGeometry x="1530" y="840" width="40" height="380" as="geometry" />
        </mxCell>
        <mxCell id="exqZRgO2Eq1xU3M3Er-l-50" value="" style="html=1;points=[[0,0,0,0,5],[0,1,0,0,-5],[1,0,0,0,5],[1,1,0,0,-5]];perimeter=orthogonalPerimeter;outlineConnect=0;targetShapes=umlLifeline;portConstraint=eastwest;newEdgeStyle={&quot;curved&quot;:0,&quot;rounded&quot;:0};" vertex="1" parent="exqZRgO2Eq1xU3M3Er-l-49">
          <mxGeometry x="15" y="140" width="10" height="50" as="geometry" />
        </mxCell>
        <mxCell id="exqZRgO2Eq1xU3M3Er-l-51" value="" style="html=1;points=[[0,0,0,0,5],[0,1,0,0,-5],[1,0,0,0,5],[1,1,0,0,-5]];perimeter=orthogonalPerimeter;outlineConnect=0;targetShapes=umlLifeline;portConstraint=eastwest;newEdgeStyle={&quot;curved&quot;:0,&quot;rounded&quot;:0};" vertex="1" parent="exqZRgO2Eq1xU3M3Er-l-49">
          <mxGeometry x="15" y="230" width="10" height="50" as="geometry" />
        </mxCell>
        <mxCell id="exqZRgO2Eq1xU3M3Er-l-76" value="" style="html=1;points=[[0,0,0,0,5],[0,1,0,0,-5],[1,0,0,0,5],[1,1,0,0,-5]];perimeter=orthogonalPerimeter;outlineConnect=0;targetShapes=umlLifeline;portConstraint=eastwest;newEdgeStyle={&quot;curved&quot;:0,&quot;rounded&quot;:0};" vertex="1" parent="exqZRgO2Eq1xU3M3Er-l-49">
          <mxGeometry x="15" y="300" width="10" height="40" as="geometry" />
        </mxCell>
        <mxCell id="exqZRgO2Eq1xU3M3Er-l-77" value="Validating Data" style="html=1;verticalAlign=middle;endArrow=block;rounded=0;labelBackgroundColor=none;labelPosition=right;verticalLabelPosition=middle;align=left;edgeStyle=orthogonalEdgeStyle;" edge="1" parent="exqZRgO2Eq1xU3M3Er-l-49" source="exqZRgO2Eq1xU3M3Er-l-51" target="exqZRgO2Eq1xU3M3Er-l-51">
          <mxGeometry width="80" relative="1" as="geometry">
            <mxPoint x="30" y="230" as="sourcePoint" />
            <mxPoint x="30" y="250" as="targetPoint" />
            <mxPoint as="offset" />
            <Array as="points">
              <mxPoint x="60" y="240" />
              <mxPoint x="60" y="260" />
            </Array>
          </mxGeometry>
        </mxCell>
        <mxCell id="exqZRgO2Eq1xU3M3Er-l-53" value="Akses View&lt;div&gt;&lt;span style=&quot;background-color: initial;&quot;&gt;Kelola&amp;nbsp;&lt;/span&gt;&lt;span style=&quot;background-color: initial;&quot;&gt;User Admin&lt;/span&gt;&lt;/div&gt;" style="html=1;verticalAlign=bottom;endArrow=block;curved=0;rounded=0;labelBackgroundColor=none;labelPosition=center;verticalLabelPosition=top;align=center;" edge="1" parent="1" source="exqZRgO2Eq1xU3M3Er-l-44" target="exqZRgO2Eq1xU3M3Er-l-46">
          <mxGeometry x="-0.0028" width="80" relative="1" as="geometry">
            <mxPoint x="1175" y="909.5" as="sourcePoint" />
            <mxPoint x="1300" y="909.5" as="targetPoint" />
            <mxPoint as="offset" />
            <Array as="points">
              <mxPoint x="1240" y="910" />
            </Array>
          </mxGeometry>
        </mxCell>
        <mxCell id="exqZRgO2Eq1xU3M3Er-l-54" value="Tabel Data User Admin" style="html=1;verticalAlign=bottom;endArrow=open;dashed=1;endSize=8;curved=0;rounded=0;" edge="1" parent="1" source="exqZRgO2Eq1xU3M3Er-l-46" target="exqZRgO2Eq1xU3M3Er-l-44">
          <mxGeometry relative="1" as="geometry">
            <mxPoint x="1300" y="930" as="sourcePoint" />
            <mxPoint x="1175" y="930" as="targetPoint" />
            <Array as="points">
              <mxPoint x="1240" y="940" />
            </Array>
          </mxGeometry>
        </mxCell>
        <mxCell id="exqZRgO2Eq1xU3M3Er-l-55" value="Klik Ubah Data Terpilih" style="html=1;verticalAlign=bottom;endArrow=block;curved=0;rounded=0;labelBackgroundColor=none;labelPosition=center;verticalLabelPosition=top;align=center;" edge="1" parent="1" source="exqZRgO2Eq1xU3M3Er-l-44" target="exqZRgO2Eq1xU3M3Er-l-46">
          <mxGeometry x="-0.0028" width="80" relative="1" as="geometry">
            <mxPoint x="1175" y="970" as="sourcePoint" />
            <mxPoint x="1300" y="970" as="targetPoint" />
            <mxPoint as="offset" />
            <Array as="points">
              <mxPoint x="1240" y="970" />
            </Array>
          </mxGeometry>
        </mxCell>
        <mxCell id="exqZRgO2Eq1xU3M3Er-l-57" value="Get Data" style="html=1;verticalAlign=bottom;endArrow=block;curved=0;rounded=0;labelBackgroundColor=none;labelPosition=center;verticalLabelPosition=top;align=center;" edge="1" parent="1" source="exqZRgO2Eq1xU3M3Er-l-50" target="exqZRgO2Eq1xU3M3Er-l-48">
          <mxGeometry x="-0.0028" width="80" relative="1" as="geometry">
            <mxPoint x="1430" y="1000" as="sourcePoint" />
            <mxPoint x="1545" y="1000" as="targetPoint" />
            <mxPoint as="offset" />
            <Array as="points">
              <mxPoint x="1600" y="990" />
            </Array>
          </mxGeometry>
        </mxCell>
        <mxCell id="exqZRgO2Eq1xU3M3Er-l-58" value="Return Data" style="html=1;verticalAlign=bottom;endArrow=open;dashed=1;endSize=8;curved=0;rounded=0;" edge="1" parent="1" source="exqZRgO2Eq1xU3M3Er-l-48" target="exqZRgO2Eq1xU3M3Er-l-50">
          <mxGeometry relative="1" as="geometry">
            <mxPoint x="1530" y="1060" as="sourcePoint" />
            <mxPoint x="1405" y="1060" as="targetPoint" />
            <Array as="points">
              <mxPoint x="1610" y="1020" />
            </Array>
          </mxGeometry>
        </mxCell>
        <mxCell id="exqZRgO2Eq1xU3M3Er-l-59" value="Return Pesan&lt;div&gt;Kesalahan&lt;/div&gt;" style="html=1;verticalAlign=bottom;endArrow=open;dashed=1;endSize=8;curved=0;rounded=0;" edge="1" parent="1" source="exqZRgO2Eq1xU3M3Er-l-51" target="exqZRgO2Eq1xU3M3Er-l-68">
          <mxGeometry relative="1" as="geometry">
            <mxPoint x="1420" y="1090" as="sourcePoint" />
            <mxPoint x="1310" y="1090" as="targetPoint" />
            <Array as="points">
              <mxPoint x="1490" y="1110" />
            </Array>
          </mxGeometry>
        </mxCell>
        <mxCell id="exqZRgO2Eq1xU3M3Er-l-63" value="Find Data" style="html=1;verticalAlign=middle;endArrow=block;rounded=0;labelBackgroundColor=none;labelPosition=right;verticalLabelPosition=middle;align=left;edgeStyle=orthogonalEdgeStyle;" edge="1" parent="1" source="exqZRgO2Eq1xU3M3Er-l-48" target="exqZRgO2Eq1xU3M3Er-l-48">
          <mxGeometry x="-0.0028" width="80" relative="1" as="geometry">
            <mxPoint x="1550" y="1000" as="sourcePoint" />
            <mxPoint x="1660" y="1000" as="targetPoint" />
            <mxPoint as="offset" />
          </mxGeometry>
        </mxCell>
        <mxCell id="exqZRgO2Eq1xU3M3Er-l-65" value="View Form&lt;div&gt;Ubah Data&lt;/div&gt;" style="shape=umlLifeline;perimeter=lifelinePerimeter;html=1;container=1;dropTarget=0;collapsible=0;recursiveResize=0;outlineConnect=0;portConstraint=eastwest;newEdgeStyle={&quot;curved&quot;:0,&quot;rounded&quot;:0};participant=umlBoundary;labelPosition=center;verticalLabelPosition=top;align=center;verticalAlign=bottom;" vertex="1" parent="1">
          <mxGeometry x="1410" y="840" width="50" height="380" as="geometry" />
        </mxCell>
        <mxCell id="exqZRgO2Eq1xU3M3Er-l-68" value="" style="html=1;points=[[0,0,0,0,5],[0,1,0,0,-5],[1,0,0,0,5],[1,1,0,0,-5]];perimeter=orthogonalPerimeter;outlineConnect=0;targetShapes=umlLifeline;portConstraint=eastwest;newEdgeStyle={&quot;curved&quot;:0,&quot;rounded&quot;:0};" vertex="1" parent="exqZRgO2Eq1xU3M3Er-l-65">
          <mxGeometry x="20" y="190" width="10" height="130" as="geometry" />
        </mxCell>
        <mxCell id="exqZRgO2Eq1xU3M3Er-l-67" value="Return View" style="html=1;verticalAlign=bottom;endArrow=open;dashed=1;endSize=8;curved=0;rounded=0;" edge="1" parent="1">
          <mxGeometry relative="1" as="geometry">
            <mxPoint x="1550" y="1030" as="sourcePoint" />
            <mxPoint x="1440" y="1030" as="targetPoint" />
            <Array as="points">
              <mxPoint x="1495" y="1030" />
            </Array>
          </mxGeometry>
        </mxCell>
        <mxCell id="exqZRgO2Eq1xU3M3Er-l-69" value="Input Data" style="html=1;verticalAlign=bottom;endArrow=block;curved=0;rounded=0;labelBackgroundColor=default;labelPosition=center;verticalLabelPosition=top;align=center;" edge="1" parent="1" source="exqZRgO2Eq1xU3M3Er-l-44" target="exqZRgO2Eq1xU3M3Er-l-68">
          <mxGeometry x="-0.0028" width="80" relative="1" as="geometry">
            <mxPoint x="1170" y="1070" as="sourcePoint" />
            <mxPoint x="1295" y="1070" as="targetPoint" />
            <mxPoint as="offset" />
            <Array as="points">
              <mxPoint x="1280" y="1060" />
            </Array>
          </mxGeometry>
        </mxCell>
        <mxCell id="exqZRgO2Eq1xU3M3Er-l-70" value="Form Ubah Data" style="html=1;verticalAlign=bottom;endArrow=open;dashed=1;endSize=8;curved=0;rounded=0;" edge="1" parent="1" source="exqZRgO2Eq1xU3M3Er-l-68" target="exqZRgO2Eq1xU3M3Er-l-44">
          <mxGeometry relative="1" as="geometry">
            <mxPoint x="1350" y="1020" as="sourcePoint" />
            <mxPoint x="1240" y="1020" as="targetPoint" />
            <Array as="points">
              <mxPoint x="1295" y="1040" />
            </Array>
          </mxGeometry>
        </mxCell>
        <mxCell id="exqZRgO2Eq1xU3M3Er-l-71" value="Post Data" style="html=1;verticalAlign=bottom;endArrow=block;curved=0;rounded=0;labelBackgroundColor=none;labelPosition=center;verticalLabelPosition=top;align=center;" edge="1" parent="1" source="exqZRgO2Eq1xU3M3Er-l-68" target="exqZRgO2Eq1xU3M3Er-l-51">
          <mxGeometry x="-0.0028" width="80" relative="1" as="geometry">
            <mxPoint x="1320" y="990" as="sourcePoint" />
            <mxPoint x="1555" y="990" as="targetPoint" />
            <mxPoint as="offset" />
            <Array as="points">
              <mxPoint x="1480" y="1070" />
            </Array>
          </mxGeometry>
        </mxCell>
        <mxCell id="exqZRgO2Eq1xU3M3Er-l-73" value="Post Data" style="html=1;verticalAlign=bottom;endArrow=block;curved=0;rounded=0;labelBackgroundColor=none;labelPosition=center;verticalLabelPosition=top;align=center;" edge="1" parent="1" target="exqZRgO2Eq1xU3M3Er-l-72" source="exqZRgO2Eq1xU3M3Er-l-51">
          <mxGeometry x="-0.0028" width="80" relative="1" as="geometry">
            <mxPoint x="1555" y="1079.43" as="sourcePoint" />
            <mxPoint x="1545" y="1089.43" as="targetPoint" />
            <mxPoint as="offset" />
            <Array as="points">
              <mxPoint x="1600" y="1120" />
            </Array>
          </mxGeometry>
        </mxCell>
        <mxCell id="exqZRgO2Eq1xU3M3Er-l-74" value="Return Status" style="html=1;verticalAlign=bottom;endArrow=open;dashed=1;endSize=8;curved=0;rounded=0;" edge="1" parent="1" source="exqZRgO2Eq1xU3M3Er-l-72" target="exqZRgO2Eq1xU3M3Er-l-76">
          <mxGeometry relative="1" as="geometry">
            <mxPoint x="1530" y="1149.43" as="sourcePoint" />
            <mxPoint x="1555" y="1109.43" as="targetPoint" />
            <Array as="points" />
          </mxGeometry>
        </mxCell>
        <mxCell id="exqZRgO2Eq1xU3M3Er-l-79" value="Return Pesan&lt;div&gt;Gagal&lt;/div&gt;" style="html=1;verticalAlign=bottom;endArrow=open;dashed=1;endSize=8;curved=0;rounded=0;" edge="1" parent="1" source="exqZRgO2Eq1xU3M3Er-l-76" target="exqZRgO2Eq1xU3M3Er-l-68">
          <mxGeometry relative="1" as="geometry">
            <mxPoint x="1545" y="1160" as="sourcePoint" />
            <mxPoint x="1440" y="1160" as="targetPoint" />
            <Array as="points">
              <mxPoint x="1490" y="1160" />
            </Array>
          </mxGeometry>
        </mxCell>
        <mxCell id="exqZRgO2Eq1xU3M3Er-l-62" value="Redirect View Kelola User Admin" style="html=1;verticalAlign=bottom;endArrow=block;curved=0;rounded=0;labelBackgroundColor=default;labelPosition=center;verticalLabelPosition=top;align=center;" edge="1" parent="1" source="exqZRgO2Eq1xU3M3Er-l-76" target="exqZRgO2Eq1xU3M3Er-l-113">
          <mxGeometry x="-0.0028" width="80" relative="1" as="geometry">
            <mxPoint x="1445" y="1094.76" as="sourcePoint" />
            <mxPoint x="1380" y="1190" as="targetPoint" />
            <mxPoint as="offset" />
            <Array as="points" />
          </mxGeometry>
        </mxCell>
        <mxCell id="exqZRgO2Eq1xU3M3Er-l-56" value="Post Data" style="html=1;verticalAlign=bottom;endArrow=block;curved=0;rounded=0;labelBackgroundColor=default;labelPosition=center;verticalLabelPosition=top;align=center;" edge="1" parent="1" source="exqZRgO2Eq1xU3M3Er-l-46" target="exqZRgO2Eq1xU3M3Er-l-50">
          <mxGeometry x="0.1064" width="80" relative="1" as="geometry">
            <mxPoint x="1300" y="980" as="sourcePoint" />
            <mxPoint x="1425" y="980" as="targetPoint" />
            <mxPoint as="offset" />
            <Array as="points">
              <mxPoint x="1370" y="980" />
            </Array>
          </mxGeometry>
        </mxCell>
        <mxCell id="exqZRgO2Eq1xU3M3Er-l-114" value="" style="html=1;points=[[0,0,0,0,5],[0,1,0,0,-5],[1,0,0,0,5],[1,1,0,0,-5]];perimeter=orthogonalPerimeter;outlineConnect=0;targetShapes=umlLifeline;portConstraint=eastwest;newEdgeStyle={&quot;curved&quot;:0,&quot;rounded&quot;:0};" vertex="1" parent="1">
          <mxGeometry x="1300" y="510" width="10" height="30" as="geometry" />
        </mxCell>
        <mxCell id="exqZRgO2Eq1xU3M3Er-l-23" value="Pilih&amp;nbsp;&lt;span style=&quot;&quot;&gt;Tambah Data&lt;/span&gt;" style="html=1;verticalAlign=bottom;endArrow=block;curved=0;rounded=0;labelBackgroundColor=default;labelPosition=center;verticalLabelPosition=top;align=center;" edge="1" parent="1" source="exqZRgO2Eq1xU3M3Er-l-11" target="exqZRgO2Eq1xU3M3Er-l-13">
          <mxGeometry x="-0.0028" width="80" relative="1" as="geometry">
            <mxPoint x="1170" y="560" as="sourcePoint" />
            <mxPoint x="1425" y="560" as="targetPoint" />
            <mxPoint as="offset" />
            <Array as="points">
              <mxPoint x="1280" y="560" />
            </Array>
          </mxGeometry>
        </mxCell>
        <mxCell id="exqZRgO2Eq1xU3M3Er-l-117" value="Form Tambah Data" style="html=1;verticalAlign=bottom;endArrow=open;dashed=1;endSize=8;curved=0;rounded=0;labelBackgroundColor=default;" edge="1" parent="1" source="exqZRgO2Eq1xU3M3Er-l-13" target="exqZRgO2Eq1xU3M3Er-l-11">
          <mxGeometry relative="1" as="geometry">
            <mxPoint x="1355" y="589.72" as="sourcePoint" />
            <mxPoint x="1230" y="589.72" as="targetPoint" />
            <Array as="points">
              <mxPoint x="1295" y="580" />
            </Array>
          </mxGeometry>
        </mxCell>
        <mxCell id="exqZRgO2Eq1xU3M3Er-l-118" value="&lt;span style=&quot;&quot;&gt;Input Data&lt;/span&gt;" style="html=1;verticalAlign=bottom;endArrow=block;curved=0;rounded=0;labelBackgroundColor=default;labelPosition=center;verticalLabelPosition=top;align=center;" edge="1" parent="1" source="exqZRgO2Eq1xU3M3Er-l-11" target="exqZRgO2Eq1xU3M3Er-l-13">
          <mxGeometry x="-0.0028" width="80" relative="1" as="geometry">
            <mxPoint x="1185" y="570" as="sourcePoint" />
            <mxPoint x="1440" y="570" as="targetPoint" />
            <mxPoint as="offset" />
            <Array as="points">
              <mxPoint x="1290" y="600" />
            </Array>
          </mxGeometry>
        </mxCell>
        <mxCell id="exqZRgO2Eq1xU3M3Er-l-30" value="Redirect View Kelola User Admin" style="html=1;verticalAlign=bottom;endArrow=block;curved=0;rounded=0;labelBackgroundColor=default;labelPosition=center;verticalLabelPosition=top;align=center;" edge="1" parent="1" source="exqZRgO2Eq1xU3M3Er-l-19" target="exqZRgO2Eq1xU3M3Er-l-29">
          <mxGeometry x="-0.0028" width="80" relative="1" as="geometry">
            <mxPoint x="1575" y="694.76" as="sourcePoint" />
            <mxPoint x="1685" y="694.76" as="targetPoint" />
            <mxPoint as="offset" />
            <Array as="points">
              <mxPoint x="1430" y="740" />
            </Array>
          </mxGeometry>
        </mxCell>
        <mxCell id="exqZRgO2Eq1xU3M3Er-l-119" value="User Super&amp;nbsp;&lt;div&gt;dan Admin&lt;/div&gt;" style="shape=umlLifeline;perimeter=lifelinePerimeter;html=1;container=1;dropTarget=0;collapsible=0;recursiveResize=0;outlineConnect=0;portConstraint=eastwest;newEdgeStyle={&quot;curved&quot;:0,&quot;rounded&quot;:0};participant=umlActor;labelPosition=center;verticalLabelPosition=top;align=center;verticalAlign=bottom;" vertex="1" parent="1">
          <mxGeometry x="1160" y="1280" width="20" height="340" as="geometry" />
        </mxCell>
        <mxCell id="exqZRgO2Eq1xU3M3Er-l-120" value="" style="html=1;points=[[0,0,0,0,5],[0,1,0,0,-5],[1,0,0,0,5],[1,1,0,0,-5]];perimeter=orthogonalPerimeter;outlineConnect=0;targetShapes=umlLifeline;portConstraint=eastwest;newEdgeStyle={&quot;curved&quot;:0,&quot;rounded&quot;:0};" vertex="1" parent="exqZRgO2Eq1xU3M3Er-l-119">
          <mxGeometry x="5" y="70" width="10" height="90" as="geometry" />
        </mxCell>
        <mxCell id="exqZRgO2Eq1xU3M3Er-l-121" value="View Form&lt;div&gt;Tambah Data&lt;/div&gt;" style="shape=umlLifeline;perimeter=lifelinePerimeter;html=1;container=1;dropTarget=0;collapsible=0;recursiveResize=0;outlineConnect=0;portConstraint=eastwest;newEdgeStyle={&quot;curved&quot;:0,&quot;rounded&quot;:0};participant=umlBoundary;labelPosition=center;verticalLabelPosition=top;align=center;verticalAlign=bottom;" vertex="1" parent="1">
          <mxGeometry x="1410" y="1280" width="50" height="340" as="geometry" />
        </mxCell>
        <mxCell id="exqZRgO2Eq1xU3M3Er-l-122" value="" style="html=1;points=[[0,0,0,0,5],[0,1,0,0,-5],[1,0,0,0,5],[1,1,0,0,-5]];perimeter=orthogonalPerimeter;outlineConnect=0;targetShapes=umlLifeline;portConstraint=eastwest;newEdgeStyle={&quot;curved&quot;:0,&quot;rounded&quot;:0};" vertex="1" parent="exqZRgO2Eq1xU3M3Er-l-121">
          <mxGeometry x="20" y="120" width="10" height="150" as="geometry" />
        </mxCell>
        <mxCell id="exqZRgO2Eq1xU3M3Er-l-123" value="Model&lt;div&gt;Kategori Produk&lt;/div&gt;" style="shape=umlLifeline;perimeter=lifelinePerimeter;html=1;container=1;dropTarget=0;collapsible=0;recursiveResize=0;outlineConnect=0;portConstraint=eastwest;newEdgeStyle={&quot;curved&quot;:0,&quot;rounded&quot;:0};participant=umlEntity;labelPosition=center;verticalLabelPosition=top;align=center;verticalAlign=bottom;" vertex="1" parent="1">
          <mxGeometry x="1660" y="1280" width="40" height="340" as="geometry" />
        </mxCell>
        <mxCell id="exqZRgO2Eq1xU3M3Er-l-124" value="" style="html=1;points=[[0,0,0,0,5],[0,1,0,0,-5],[1,0,0,0,5],[1,1,0,0,-5]];perimeter=orthogonalPerimeter;outlineConnect=0;targetShapes=umlLifeline;portConstraint=eastwest;newEdgeStyle={&quot;curved&quot;:0,&quot;rounded&quot;:0};" vertex="1" parent="exqZRgO2Eq1xU3M3Er-l-123">
          <mxGeometry x="15" y="230" width="10" height="30" as="geometry" />
        </mxCell>
        <mxCell id="exqZRgO2Eq1xU3M3Er-l-125" value="Controller&lt;div&gt;Kategori Produk&lt;/div&gt;" style="shape=umlLifeline;perimeter=lifelinePerimeter;html=1;container=1;dropTarget=0;collapsible=0;recursiveResize=0;outlineConnect=0;portConstraint=eastwest;newEdgeStyle={&quot;curved&quot;:0,&quot;rounded&quot;:0};participant=umlControl;labelPosition=center;verticalLabelPosition=top;align=center;verticalAlign=bottom;" vertex="1" parent="1">
          <mxGeometry x="1540" y="1280" width="40" height="340" as="geometry" />
        </mxCell>
        <mxCell id="exqZRgO2Eq1xU3M3Er-l-126" value="" style="html=1;points=[[0,0,0,0,5],[0,1,0,0,-5],[1,0,0,0,5],[1,1,0,0,-5]];perimeter=orthogonalPerimeter;outlineConnect=0;targetShapes=umlLifeline;portConstraint=eastwest;newEdgeStyle={&quot;curved&quot;:0,&quot;rounded&quot;:0};" vertex="1" parent="exqZRgO2Eq1xU3M3Er-l-125">
          <mxGeometry x="15" y="170" width="10" height="60" as="geometry" />
        </mxCell>
        <mxCell id="exqZRgO2Eq1xU3M3Er-l-127" value="" style="html=1;points=[[0,0,0,0,5],[0,1,0,0,-5],[1,0,0,0,5],[1,1,0,0,-5]];perimeter=orthogonalPerimeter;outlineConnect=0;targetShapes=umlLifeline;portConstraint=eastwest;newEdgeStyle={&quot;curved&quot;:0,&quot;rounded&quot;:0};" vertex="1" parent="exqZRgO2Eq1xU3M3Er-l-125">
          <mxGeometry x="15" y="260" width="10" height="40" as="geometry" />
        </mxCell>
        <mxCell id="exqZRgO2Eq1xU3M3Er-l-128" value="Validating Data" style="html=1;verticalAlign=middle;endArrow=block;rounded=0;labelBackgroundColor=none;labelPosition=right;verticalLabelPosition=middle;align=left;edgeStyle=orthogonalEdgeStyle;" edge="1" parent="exqZRgO2Eq1xU3M3Er-l-125" source="exqZRgO2Eq1xU3M3Er-l-126" target="exqZRgO2Eq1xU3M3Er-l-126">
          <mxGeometry width="80" relative="1" as="geometry">
            <mxPoint x="35" y="150" as="sourcePoint" />
            <mxPoint x="35" y="170" as="targetPoint" />
            <mxPoint as="offset" />
            <Array as="points">
              <mxPoint x="55" y="180" />
              <mxPoint x="55" y="200" />
            </Array>
          </mxGeometry>
        </mxCell>
        <mxCell id="exqZRgO2Eq1xU3M3Er-l-129" value="Akses View&lt;div&gt;Kategori Produk&lt;/div&gt;" style="html=1;verticalAlign=bottom;endArrow=block;curved=0;rounded=0;labelBackgroundColor=none;labelPosition=center;verticalLabelPosition=top;align=center;" edge="1" parent="1" source="exqZRgO2Eq1xU3M3Er-l-120" target="exqZRgO2Eq1xU3M3Er-l-171">
          <mxGeometry x="-0.0028" width="80" relative="1" as="geometry">
            <mxPoint x="1175" y="1349.5" as="sourcePoint" />
            <mxPoint x="1270" y="1350" as="targetPoint" />
            <mxPoint as="offset" />
            <Array as="points">
              <mxPoint x="1240" y="1350" />
            </Array>
          </mxGeometry>
        </mxCell>
        <mxCell id="exqZRgO2Eq1xU3M3Er-l-130" value="Tabel Data&lt;div&gt;Kategori Produk&lt;/div&gt;" style="html=1;verticalAlign=bottom;endArrow=open;dashed=1;endSize=8;curved=0;rounded=0;labelBackgroundColor=none;" edge="1" parent="1" source="exqZRgO2Eq1xU3M3Er-l-171" target="exqZRgO2Eq1xU3M3Er-l-120">
          <mxGeometry relative="1" as="geometry">
            <mxPoint x="1300" y="1379.72" as="sourcePoint" />
            <mxPoint x="1175" y="1379.72" as="targetPoint" />
            <Array as="points">
              <mxPoint x="1240" y="1380" />
            </Array>
          </mxGeometry>
        </mxCell>
        <mxCell id="exqZRgO2Eq1xU3M3Er-l-131" value="Post Data" style="html=1;verticalAlign=bottom;endArrow=block;curved=0;rounded=0;labelBackgroundColor=none;labelPosition=center;verticalLabelPosition=top;align=center;" edge="1" parent="1" source="exqZRgO2Eq1xU3M3Er-l-122" target="exqZRgO2Eq1xU3M3Er-l-126">
          <mxGeometry x="-0.0028" width="80" relative="1" as="geometry">
            <mxPoint x="1430" y="1420" as="sourcePoint" />
            <mxPoint x="1555" y="1420" as="targetPoint" />
            <mxPoint as="offset" />
            <Array as="points">
              <mxPoint x="1500" y="1450" />
            </Array>
          </mxGeometry>
        </mxCell>
        <mxCell id="exqZRgO2Eq1xU3M3Er-l-132" value="Post Data" style="html=1;verticalAlign=bottom;endArrow=block;curved=0;rounded=0;labelBackgroundColor=none;labelPosition=center;verticalLabelPosition=top;align=center;" edge="1" parent="1" source="exqZRgO2Eq1xU3M3Er-l-126" target="exqZRgO2Eq1xU3M3Er-l-124">
          <mxGeometry x="-0.0028" width="80" relative="1" as="geometry">
            <mxPoint x="1560" y="1440" as="sourcePoint" />
            <mxPoint x="1675" y="1440" as="targetPoint" />
            <mxPoint as="offset" />
            <Array as="points">
              <mxPoint x="1590" y="1510" />
            </Array>
          </mxGeometry>
        </mxCell>
        <mxCell id="exqZRgO2Eq1xU3M3Er-l-133" value="Return Status" style="html=1;verticalAlign=bottom;endArrow=open;dashed=1;endSize=8;curved=0;rounded=0;" edge="1" parent="1" source="exqZRgO2Eq1xU3M3Er-l-124" target="exqZRgO2Eq1xU3M3Er-l-127">
          <mxGeometry relative="1" as="geometry">
            <mxPoint x="1660" y="1500" as="sourcePoint" />
            <mxPoint x="1535" y="1500" as="targetPoint" />
            <Array as="points" />
          </mxGeometry>
        </mxCell>
        <mxCell id="exqZRgO2Eq1xU3M3Er-l-134" value="Return Pesan&lt;div&gt;Gagal&lt;/div&gt;" style="html=1;verticalAlign=bottom;endArrow=open;dashed=1;endSize=8;curved=0;rounded=0;" edge="1" parent="1" source="exqZRgO2Eq1xU3M3Er-l-127" target="exqZRgO2Eq1xU3M3Er-l-122">
          <mxGeometry relative="1" as="geometry">
            <mxPoint x="1550" y="1530" as="sourcePoint" />
            <mxPoint x="1440" y="1530" as="targetPoint" />
            <Array as="points">
              <mxPoint x="1490" y="1550" />
            </Array>
          </mxGeometry>
        </mxCell>
        <mxCell id="exqZRgO2Eq1xU3M3Er-l-135" value="View&lt;div&gt;Kategori Produk&lt;/div&gt;" style="shape=umlLifeline;perimeter=lifelinePerimeter;html=1;container=1;dropTarget=0;collapsible=0;recursiveResize=0;outlineConnect=0;portConstraint=eastwest;newEdgeStyle={&quot;curved&quot;:0,&quot;rounded&quot;:0};participant=umlBoundary;labelPosition=center;verticalLabelPosition=top;align=center;verticalAlign=bottom;" vertex="1" parent="1">
          <mxGeometry x="1280" y="1280" width="50" height="340" as="geometry" />
        </mxCell>
        <mxCell id="exqZRgO2Eq1xU3M3Er-l-136" value="" style="html=1;points=[[0,0,0,0,5],[0,1,0,0,-5],[1,0,0,0,5],[1,1,0,0,-5]];perimeter=orthogonalPerimeter;outlineConnect=0;targetShapes=umlLifeline;portConstraint=eastwest;newEdgeStyle={&quot;curved&quot;:0,&quot;rounded&quot;:0};" vertex="1" parent="exqZRgO2Eq1xU3M3Er-l-135">
          <mxGeometry x="20" y="300" width="10" height="20" as="geometry" />
        </mxCell>
        <mxCell id="exqZRgO2Eq1xU3M3Er-l-137" value="Insert Data" style="html=1;verticalAlign=middle;endArrow=block;rounded=0;labelBackgroundColor=none;labelPosition=right;verticalLabelPosition=middle;align=left;edgeStyle=orthogonalEdgeStyle;" edge="1" parent="1" source="exqZRgO2Eq1xU3M3Er-l-124" target="exqZRgO2Eq1xU3M3Er-l-124">
          <mxGeometry x="-0.0028" width="80" relative="1" as="geometry">
            <mxPoint x="1680" y="1440" as="sourcePoint" />
            <mxPoint x="1790" y="1440" as="targetPoint" />
            <mxPoint as="offset" />
          </mxGeometry>
        </mxCell>
        <mxCell id="exqZRgO2Eq1xU3M3Er-l-138" value="Return Pesan&lt;div&gt;Kesalahan&lt;/div&gt;" style="html=1;verticalAlign=bottom;endArrow=open;dashed=1;endSize=8;curved=0;rounded=0;" edge="1" parent="1" source="exqZRgO2Eq1xU3M3Er-l-126" target="exqZRgO2Eq1xU3M3Er-l-122">
          <mxGeometry relative="1" as="geometry">
            <mxPoint x="1555" y="1460" as="sourcePoint" />
            <mxPoint x="1440" y="1460" as="targetPoint" />
            <Array as="points">
              <mxPoint x="1500" y="1490" />
            </Array>
          </mxGeometry>
        </mxCell>
        <mxCell id="exqZRgO2Eq1xU3M3Er-l-139" value="User Super&amp;nbsp;&lt;div&gt;dan Admin&lt;/div&gt;" style="shape=umlLifeline;perimeter=lifelinePerimeter;html=1;container=1;dropTarget=0;collapsible=0;recursiveResize=0;outlineConnect=0;portConstraint=eastwest;newEdgeStyle={&quot;curved&quot;:0,&quot;rounded&quot;:0};participant=umlActor;labelPosition=center;verticalLabelPosition=top;align=center;verticalAlign=bottom;" vertex="1" parent="1">
          <mxGeometry x="1160" y="1680" width="20" height="380" as="geometry" />
        </mxCell>
        <mxCell id="exqZRgO2Eq1xU3M3Er-l-140" value="" style="html=1;points=[[0,0,0,0,5],[0,1,0,0,-5],[1,0,0,0,5],[1,1,0,0,-5]];perimeter=orthogonalPerimeter;outlineConnect=0;targetShapes=umlLifeline;portConstraint=eastwest;newEdgeStyle={&quot;curved&quot;:0,&quot;rounded&quot;:0};" vertex="1" parent="exqZRgO2Eq1xU3M3Er-l-139">
          <mxGeometry x="5" y="70" width="10" height="150" as="geometry" />
        </mxCell>
        <mxCell id="exqZRgO2Eq1xU3M3Er-l-141" value="View&lt;div&gt;Kategori Produk&lt;/div&gt;" style="shape=umlLifeline;perimeter=lifelinePerimeter;html=1;container=1;dropTarget=0;collapsible=0;recursiveResize=0;outlineConnect=0;portConstraint=eastwest;newEdgeStyle={&quot;curved&quot;:0,&quot;rounded&quot;:0};participant=umlBoundary;labelPosition=center;verticalLabelPosition=top;align=center;verticalAlign=bottom;" vertex="1" parent="1">
          <mxGeometry x="1290" y="1680" width="50" height="380" as="geometry" />
        </mxCell>
        <mxCell id="exqZRgO2Eq1xU3M3Er-l-142" value="" style="html=1;points=[[0,0,0,0,5],[0,1,0,0,-5],[1,0,0,0,5],[1,1,0,0,-5]];perimeter=orthogonalPerimeter;outlineConnect=0;targetShapes=umlLifeline;portConstraint=eastwest;newEdgeStyle={&quot;curved&quot;:0,&quot;rounded&quot;:0};" vertex="1" parent="exqZRgO2Eq1xU3M3Er-l-141">
          <mxGeometry x="20" y="70" width="10" height="70" as="geometry" />
        </mxCell>
        <mxCell id="exqZRgO2Eq1xU3M3Er-l-143" value="" style="html=1;points=[[0,0,0,0,5],[0,1,0,0,-5],[1,0,0,0,5],[1,1,0,0,-5]];perimeter=orthogonalPerimeter;outlineConnect=0;targetShapes=umlLifeline;portConstraint=eastwest;newEdgeStyle={&quot;curved&quot;:0,&quot;rounded&quot;:0};" vertex="1" parent="exqZRgO2Eq1xU3M3Er-l-141">
          <mxGeometry x="20" y="340" width="10" height="20" as="geometry" />
        </mxCell>
        <mxCell id="exqZRgO2Eq1xU3M3Er-l-144" value="Model&amp;nbsp;&lt;div&gt;&lt;span style=&quot;text-wrap: nowrap;&quot;&gt;Kategori Produk&lt;/span&gt;&lt;/div&gt;" style="shape=umlLifeline;perimeter=lifelinePerimeter;whiteSpace=wrap;html=1;container=1;dropTarget=0;collapsible=0;recursiveResize=0;outlineConnect=0;portConstraint=eastwest;newEdgeStyle={&quot;curved&quot;:0,&quot;rounded&quot;:0};participant=umlEntity;labelPosition=center;verticalLabelPosition=top;align=center;verticalAlign=bottom;" vertex="1" parent="1">
          <mxGeometry x="1650" y="1680" width="40" height="380" as="geometry" />
        </mxCell>
        <mxCell id="exqZRgO2Eq1xU3M3Er-l-145" value="" style="html=1;points=[[0,0,0,0,5],[0,1,0,0,-5],[1,0,0,0,5],[1,1,0,0,-5]];perimeter=orthogonalPerimeter;outlineConnect=0;targetShapes=umlLifeline;portConstraint=eastwest;newEdgeStyle={&quot;curved&quot;:0,&quot;rounded&quot;:0};" vertex="1" parent="exqZRgO2Eq1xU3M3Er-l-144">
          <mxGeometry x="15" y="150" width="10" height="30" as="geometry" />
        </mxCell>
        <mxCell id="exqZRgO2Eq1xU3M3Er-l-146" value="" style="html=1;points=[[0,0,0,0,5],[0,1,0,0,-5],[1,0,0,0,5],[1,1,0,0,-5]];perimeter=orthogonalPerimeter;outlineConnect=0;targetShapes=umlLifeline;portConstraint=eastwest;newEdgeStyle={&quot;curved&quot;:0,&quot;rounded&quot;:0};" vertex="1" parent="exqZRgO2Eq1xU3M3Er-l-144">
          <mxGeometry x="15" y="270" width="10" height="30" as="geometry" />
        </mxCell>
        <mxCell id="exqZRgO2Eq1xU3M3Er-l-147" value="Update Data" style="html=1;verticalAlign=middle;endArrow=block;rounded=0;labelBackgroundColor=none;labelPosition=right;verticalLabelPosition=middle;align=left;edgeStyle=orthogonalEdgeStyle;" edge="1" parent="exqZRgO2Eq1xU3M3Er-l-144" source="exqZRgO2Eq1xU3M3Er-l-146" target="exqZRgO2Eq1xU3M3Er-l-146">
          <mxGeometry x="-0.0028" width="80" relative="1" as="geometry">
            <mxPoint x="-100" y="249.43000000000006" as="sourcePoint" />
            <mxPoint x="10" y="249.43000000000006" as="targetPoint" />
            <mxPoint as="offset" />
          </mxGeometry>
        </mxCell>
        <mxCell id="exqZRgO2Eq1xU3M3Er-l-148" value="Controller&lt;div&gt;Kategori Produk&lt;br&gt;&lt;/div&gt;" style="shape=umlLifeline;perimeter=lifelinePerimeter;html=1;container=1;dropTarget=0;collapsible=0;recursiveResize=0;outlineConnect=0;portConstraint=eastwest;newEdgeStyle={&quot;curved&quot;:0,&quot;rounded&quot;:0};participant=umlControl;labelPosition=center;verticalLabelPosition=top;align=center;verticalAlign=bottom;" vertex="1" parent="1">
          <mxGeometry x="1530" y="1680" width="40" height="380" as="geometry" />
        </mxCell>
        <mxCell id="exqZRgO2Eq1xU3M3Er-l-149" value="" style="html=1;points=[[0,0,0,0,5],[0,1,0,0,-5],[1,0,0,0,5],[1,1,0,0,-5]];perimeter=orthogonalPerimeter;outlineConnect=0;targetShapes=umlLifeline;portConstraint=eastwest;newEdgeStyle={&quot;curved&quot;:0,&quot;rounded&quot;:0};" vertex="1" parent="exqZRgO2Eq1xU3M3Er-l-148">
          <mxGeometry x="15" y="140" width="10" height="50" as="geometry" />
        </mxCell>
        <mxCell id="exqZRgO2Eq1xU3M3Er-l-150" value="" style="html=1;points=[[0,0,0,0,5],[0,1,0,0,-5],[1,0,0,0,5],[1,1,0,0,-5]];perimeter=orthogonalPerimeter;outlineConnect=0;targetShapes=umlLifeline;portConstraint=eastwest;newEdgeStyle={&quot;curved&quot;:0,&quot;rounded&quot;:0};" vertex="1" parent="exqZRgO2Eq1xU3M3Er-l-148">
          <mxGeometry x="15" y="230" width="10" height="50" as="geometry" />
        </mxCell>
        <mxCell id="exqZRgO2Eq1xU3M3Er-l-151" value="" style="html=1;points=[[0,0,0,0,5],[0,1,0,0,-5],[1,0,0,0,5],[1,1,0,0,-5]];perimeter=orthogonalPerimeter;outlineConnect=0;targetShapes=umlLifeline;portConstraint=eastwest;newEdgeStyle={&quot;curved&quot;:0,&quot;rounded&quot;:0};" vertex="1" parent="exqZRgO2Eq1xU3M3Er-l-148">
          <mxGeometry x="15" y="300" width="10" height="40" as="geometry" />
        </mxCell>
        <mxCell id="exqZRgO2Eq1xU3M3Er-l-152" value="Validating Data" style="html=1;verticalAlign=middle;endArrow=block;rounded=0;labelBackgroundColor=none;labelPosition=right;verticalLabelPosition=middle;align=left;edgeStyle=orthogonalEdgeStyle;" edge="1" parent="exqZRgO2Eq1xU3M3Er-l-148" source="exqZRgO2Eq1xU3M3Er-l-150" target="exqZRgO2Eq1xU3M3Er-l-150">
          <mxGeometry width="80" relative="1" as="geometry">
            <mxPoint x="30" y="230" as="sourcePoint" />
            <mxPoint x="30" y="250" as="targetPoint" />
            <mxPoint as="offset" />
            <Array as="points">
              <mxPoint x="60" y="240" />
              <mxPoint x="60" y="260" />
            </Array>
          </mxGeometry>
        </mxCell>
        <mxCell id="exqZRgO2Eq1xU3M3Er-l-153" value="Akses View&lt;div&gt;Kategori Produk&lt;/div&gt;" style="html=1;verticalAlign=bottom;endArrow=block;curved=0;rounded=0;labelBackgroundColor=none;labelPosition=center;verticalLabelPosition=top;align=center;" edge="1" parent="1" source="exqZRgO2Eq1xU3M3Er-l-140" target="exqZRgO2Eq1xU3M3Er-l-142">
          <mxGeometry x="-0.0028" width="80" relative="1" as="geometry">
            <mxPoint x="1175" y="1749.5" as="sourcePoint" />
            <mxPoint x="1300" y="1749.5" as="targetPoint" />
            <mxPoint as="offset" />
            <Array as="points">
              <mxPoint x="1240" y="1750" />
            </Array>
          </mxGeometry>
        </mxCell>
        <mxCell id="exqZRgO2Eq1xU3M3Er-l-154" value="Tabel Data&lt;div&gt;&lt;span style=&quot;font-size: 12px;&quot;&gt;Kategori Produk&lt;/span&gt;&lt;/div&gt;" style="html=1;verticalAlign=bottom;endArrow=open;dashed=1;endSize=8;curved=0;rounded=0;labelBackgroundColor=none;" edge="1" parent="1" source="exqZRgO2Eq1xU3M3Er-l-142" target="exqZRgO2Eq1xU3M3Er-l-140">
          <mxGeometry relative="1" as="geometry">
            <mxPoint x="1300" y="1770" as="sourcePoint" />
            <mxPoint x="1175" y="1770" as="targetPoint" />
            <Array as="points">
              <mxPoint x="1240" y="1790" />
            </Array>
          </mxGeometry>
        </mxCell>
        <mxCell id="exqZRgO2Eq1xU3M3Er-l-155" value="Klik &#39;Ubah&#39; Data Terpilih" style="html=1;verticalAlign=bottom;endArrow=block;curved=0;rounded=0;labelBackgroundColor=none;labelPosition=center;verticalLabelPosition=top;align=center;" edge="1" parent="1" source="exqZRgO2Eq1xU3M3Er-l-140" target="exqZRgO2Eq1xU3M3Er-l-142">
          <mxGeometry x="-0.0028" width="80" relative="1" as="geometry">
            <mxPoint x="1175" y="1810" as="sourcePoint" />
            <mxPoint x="1300" y="1810" as="targetPoint" />
            <mxPoint as="offset" />
            <Array as="points">
              <mxPoint x="1240" y="1810" />
            </Array>
          </mxGeometry>
        </mxCell>
        <mxCell id="exqZRgO2Eq1xU3M3Er-l-156" value="Get Data" style="html=1;verticalAlign=bottom;endArrow=block;curved=0;rounded=0;labelBackgroundColor=none;labelPosition=center;verticalLabelPosition=top;align=center;" edge="1" parent="1" source="exqZRgO2Eq1xU3M3Er-l-149" target="exqZRgO2Eq1xU3M3Er-l-145">
          <mxGeometry x="-0.0028" width="80" relative="1" as="geometry">
            <mxPoint x="1430" y="1840" as="sourcePoint" />
            <mxPoint x="1545" y="1840" as="targetPoint" />
            <mxPoint as="offset" />
            <Array as="points">
              <mxPoint x="1600" y="1830" />
            </Array>
          </mxGeometry>
        </mxCell>
        <mxCell id="exqZRgO2Eq1xU3M3Er-l-157" value="Return Data" style="html=1;verticalAlign=bottom;endArrow=open;dashed=1;endSize=8;curved=0;rounded=0;" edge="1" parent="1" source="exqZRgO2Eq1xU3M3Er-l-145" target="exqZRgO2Eq1xU3M3Er-l-149">
          <mxGeometry relative="1" as="geometry">
            <mxPoint x="1530" y="1900" as="sourcePoint" />
            <mxPoint x="1405" y="1900" as="targetPoint" />
            <Array as="points">
              <mxPoint x="1610" y="1860" />
            </Array>
          </mxGeometry>
        </mxCell>
        <mxCell id="exqZRgO2Eq1xU3M3Er-l-158" value="Return Pesan&lt;div&gt;Kesalahan&lt;/div&gt;" style="html=1;verticalAlign=bottom;endArrow=open;dashed=1;endSize=8;curved=0;rounded=0;" edge="1" parent="1" source="exqZRgO2Eq1xU3M3Er-l-150" target="exqZRgO2Eq1xU3M3Er-l-161">
          <mxGeometry relative="1" as="geometry">
            <mxPoint x="1420" y="1930" as="sourcePoint" />
            <mxPoint x="1310" y="1930" as="targetPoint" />
            <Array as="points">
              <mxPoint x="1490" y="1950" />
            </Array>
          </mxGeometry>
        </mxCell>
        <mxCell id="exqZRgO2Eq1xU3M3Er-l-159" value="Find Data" style="html=1;verticalAlign=middle;endArrow=block;rounded=0;labelBackgroundColor=none;labelPosition=right;verticalLabelPosition=middle;align=left;edgeStyle=orthogonalEdgeStyle;" edge="1" parent="1" source="exqZRgO2Eq1xU3M3Er-l-145" target="exqZRgO2Eq1xU3M3Er-l-145">
          <mxGeometry x="-0.0028" width="80" relative="1" as="geometry">
            <mxPoint x="1550" y="1840" as="sourcePoint" />
            <mxPoint x="1660" y="1840" as="targetPoint" />
            <mxPoint as="offset" />
          </mxGeometry>
        </mxCell>
        <mxCell id="exqZRgO2Eq1xU3M3Er-l-160" value="View Form&lt;div&gt;Ubah Data&lt;/div&gt;" style="shape=umlLifeline;perimeter=lifelinePerimeter;html=1;container=1;dropTarget=0;collapsible=0;recursiveResize=0;outlineConnect=0;portConstraint=eastwest;newEdgeStyle={&quot;curved&quot;:0,&quot;rounded&quot;:0};participant=umlBoundary;labelPosition=center;verticalLabelPosition=top;align=center;verticalAlign=bottom;" vertex="1" parent="1">
          <mxGeometry x="1410" y="1680" width="50" height="380" as="geometry" />
        </mxCell>
        <mxCell id="exqZRgO2Eq1xU3M3Er-l-161" value="" style="html=1;points=[[0,0,0,0,5],[0,1,0,0,-5],[1,0,0,0,5],[1,1,0,0,-5]];perimeter=orthogonalPerimeter;outlineConnect=0;targetShapes=umlLifeline;portConstraint=eastwest;newEdgeStyle={&quot;curved&quot;:0,&quot;rounded&quot;:0};" vertex="1" parent="exqZRgO2Eq1xU3M3Er-l-160">
          <mxGeometry x="20" y="190" width="10" height="120" as="geometry" />
        </mxCell>
        <mxCell id="exqZRgO2Eq1xU3M3Er-l-162" value="Return View" style="html=1;verticalAlign=bottom;endArrow=open;dashed=1;endSize=8;curved=0;rounded=0;" edge="1" parent="1">
          <mxGeometry relative="1" as="geometry">
            <mxPoint x="1550" y="1870" as="sourcePoint" />
            <mxPoint x="1440" y="1870" as="targetPoint" />
            <Array as="points">
              <mxPoint x="1495" y="1870" />
            </Array>
          </mxGeometry>
        </mxCell>
        <mxCell id="exqZRgO2Eq1xU3M3Er-l-163" value="Input Data" style="html=1;verticalAlign=bottom;endArrow=block;curved=0;rounded=0;labelBackgroundColor=default;labelPosition=center;verticalLabelPosition=top;align=center;" edge="1" parent="1" source="exqZRgO2Eq1xU3M3Er-l-140" target="exqZRgO2Eq1xU3M3Er-l-161">
          <mxGeometry x="-0.0028" width="80" relative="1" as="geometry">
            <mxPoint x="1170" y="1910" as="sourcePoint" />
            <mxPoint x="1295" y="1910" as="targetPoint" />
            <mxPoint as="offset" />
            <Array as="points">
              <mxPoint x="1280" y="1900" />
            </Array>
          </mxGeometry>
        </mxCell>
        <mxCell id="exqZRgO2Eq1xU3M3Er-l-164" value="Form Ubah Data" style="html=1;verticalAlign=bottom;endArrow=open;dashed=1;endSize=8;curved=0;rounded=0;" edge="1" parent="1" source="exqZRgO2Eq1xU3M3Er-l-161" target="exqZRgO2Eq1xU3M3Er-l-140">
          <mxGeometry relative="1" as="geometry">
            <mxPoint x="1350" y="1860" as="sourcePoint" />
            <mxPoint x="1240" y="1860" as="targetPoint" />
            <Array as="points">
              <mxPoint x="1295" y="1880" />
            </Array>
          </mxGeometry>
        </mxCell>
        <mxCell id="exqZRgO2Eq1xU3M3Er-l-165" value="Post Data" style="html=1;verticalAlign=bottom;endArrow=block;curved=0;rounded=0;labelBackgroundColor=none;labelPosition=center;verticalLabelPosition=top;align=center;" edge="1" parent="1" source="exqZRgO2Eq1xU3M3Er-l-161" target="exqZRgO2Eq1xU3M3Er-l-150">
          <mxGeometry x="-0.0028" width="80" relative="1" as="geometry">
            <mxPoint x="1320" y="1830" as="sourcePoint" />
            <mxPoint x="1555" y="1830" as="targetPoint" />
            <mxPoint as="offset" />
            <Array as="points">
              <mxPoint x="1480" y="1910" />
            </Array>
          </mxGeometry>
        </mxCell>
        <mxCell id="exqZRgO2Eq1xU3M3Er-l-166" value="Post Data" style="html=1;verticalAlign=bottom;endArrow=block;curved=0;rounded=0;labelBackgroundColor=none;labelPosition=center;verticalLabelPosition=top;align=center;" edge="1" parent="1" source="exqZRgO2Eq1xU3M3Er-l-150" target="exqZRgO2Eq1xU3M3Er-l-146">
          <mxGeometry x="-0.0028" width="80" relative="1" as="geometry">
            <mxPoint x="1555" y="1919.43" as="sourcePoint" />
            <mxPoint x="1545" y="1929.43" as="targetPoint" />
            <mxPoint as="offset" />
            <Array as="points">
              <mxPoint x="1600" y="1960" />
            </Array>
          </mxGeometry>
        </mxCell>
        <mxCell id="exqZRgO2Eq1xU3M3Er-l-167" value="Return Status" style="html=1;verticalAlign=bottom;endArrow=open;dashed=1;endSize=8;curved=0;rounded=0;" edge="1" parent="1" source="exqZRgO2Eq1xU3M3Er-l-146" target="exqZRgO2Eq1xU3M3Er-l-151">
          <mxGeometry relative="1" as="geometry">
            <mxPoint x="1530" y="1989.43" as="sourcePoint" />
            <mxPoint x="1555" y="1949.43" as="targetPoint" />
            <Array as="points" />
          </mxGeometry>
        </mxCell>
        <mxCell id="exqZRgO2Eq1xU3M3Er-l-168" value="Return Pesan&lt;div&gt;Gagal&lt;/div&gt;" style="html=1;verticalAlign=bottom;endArrow=open;dashed=1;endSize=8;curved=0;rounded=0;" edge="1" parent="1" source="exqZRgO2Eq1xU3M3Er-l-151" target="exqZRgO2Eq1xU3M3Er-l-161">
          <mxGeometry relative="1" as="geometry">
            <mxPoint x="1545" y="2000" as="sourcePoint" />
            <mxPoint x="1440" y="2000" as="targetPoint" />
            <Array as="points">
              <mxPoint x="1490" y="1990" />
            </Array>
          </mxGeometry>
        </mxCell>
        <mxCell id="exqZRgO2Eq1xU3M3Er-l-169" value="Redirect View&amp;nbsp;&lt;span style=&quot;font-size: 12px; background-color: rgb(251, 251, 251);&quot;&gt;Kategori Produk&lt;/span&gt;" style="html=1;verticalAlign=bottom;endArrow=block;curved=0;rounded=0;labelBackgroundColor=default;labelPosition=center;verticalLabelPosition=top;align=center;" edge="1" parent="1" source="exqZRgO2Eq1xU3M3Er-l-151" target="exqZRgO2Eq1xU3M3Er-l-143">
          <mxGeometry x="-0.0028" width="80" relative="1" as="geometry">
            <mxPoint x="1445" y="1934.76" as="sourcePoint" />
            <mxPoint x="1380" y="2030" as="targetPoint" />
            <mxPoint as="offset" />
            <Array as="points" />
          </mxGeometry>
        </mxCell>
        <mxCell id="exqZRgO2Eq1xU3M3Er-l-170" value="Post Data" style="html=1;verticalAlign=bottom;endArrow=block;curved=0;rounded=0;labelBackgroundColor=default;labelPosition=center;verticalLabelPosition=top;align=center;" edge="1" parent="1" source="exqZRgO2Eq1xU3M3Er-l-142" target="exqZRgO2Eq1xU3M3Er-l-149">
          <mxGeometry x="0.1064" width="80" relative="1" as="geometry">
            <mxPoint x="1300" y="1820" as="sourcePoint" />
            <mxPoint x="1425" y="1820" as="targetPoint" />
            <mxPoint as="offset" />
            <Array as="points">
              <mxPoint x="1370" y="1820" />
            </Array>
          </mxGeometry>
        </mxCell>
        <mxCell id="exqZRgO2Eq1xU3M3Er-l-171" value="" style="html=1;points=[[0,0,0,0,5],[0,1,0,0,-5],[1,0,0,0,5],[1,1,0,0,-5]];perimeter=orthogonalPerimeter;outlineConnect=0;targetShapes=umlLifeline;portConstraint=eastwest;newEdgeStyle={&quot;curved&quot;:0,&quot;rounded&quot;:0};" vertex="1" parent="1">
          <mxGeometry x="1300" y="1350" width="10" height="30" as="geometry" />
        </mxCell>
        <mxCell id="exqZRgO2Eq1xU3M3Er-l-172" value="Pilih&amp;nbsp;&lt;span style=&quot;&quot;&gt;Tambah Data&lt;/span&gt;" style="html=1;verticalAlign=bottom;endArrow=block;curved=0;rounded=0;labelBackgroundColor=default;labelPosition=center;verticalLabelPosition=top;align=center;" edge="1" parent="1" source="exqZRgO2Eq1xU3M3Er-l-120" target="exqZRgO2Eq1xU3M3Er-l-122">
          <mxGeometry x="-0.0028" width="80" relative="1" as="geometry">
            <mxPoint x="1170" y="1400" as="sourcePoint" />
            <mxPoint x="1425" y="1400" as="targetPoint" />
            <mxPoint as="offset" />
            <Array as="points">
              <mxPoint x="1280" y="1400" />
            </Array>
          </mxGeometry>
        </mxCell>
        <mxCell id="exqZRgO2Eq1xU3M3Er-l-173" value="Form Tambah Data" style="html=1;verticalAlign=bottom;endArrow=open;dashed=1;endSize=8;curved=0;rounded=0;labelBackgroundColor=default;" edge="1" parent="1" source="exqZRgO2Eq1xU3M3Er-l-122" target="exqZRgO2Eq1xU3M3Er-l-120">
          <mxGeometry relative="1" as="geometry">
            <mxPoint x="1355" y="1429.72" as="sourcePoint" />
            <mxPoint x="1230" y="1429.72" as="targetPoint" />
            <Array as="points">
              <mxPoint x="1295" y="1420" />
            </Array>
          </mxGeometry>
        </mxCell>
        <mxCell id="exqZRgO2Eq1xU3M3Er-l-174" value="&lt;span style=&quot;&quot;&gt;Input Data&lt;/span&gt;" style="html=1;verticalAlign=bottom;endArrow=block;curved=0;rounded=0;labelBackgroundColor=default;labelPosition=center;verticalLabelPosition=top;align=center;" edge="1" parent="1" source="exqZRgO2Eq1xU3M3Er-l-120" target="exqZRgO2Eq1xU3M3Er-l-122">
          <mxGeometry x="-0.0028" width="80" relative="1" as="geometry">
            <mxPoint x="1185" y="1410" as="sourcePoint" />
            <mxPoint x="1440" y="1410" as="targetPoint" />
            <mxPoint as="offset" />
            <Array as="points">
              <mxPoint x="1290" y="1440" />
            </Array>
          </mxGeometry>
        </mxCell>
        <mxCell id="exqZRgO2Eq1xU3M3Er-l-175" value="Redirect View Kategori Produk" style="html=1;verticalAlign=bottom;endArrow=block;curved=0;rounded=0;labelBackgroundColor=default;labelPosition=center;verticalLabelPosition=top;align=center;" edge="1" parent="1" source="exqZRgO2Eq1xU3M3Er-l-127" target="exqZRgO2Eq1xU3M3Er-l-136">
          <mxGeometry x="-0.0028" width="80" relative="1" as="geometry">
            <mxPoint x="1575" y="1534.76" as="sourcePoint" />
            <mxPoint x="1685" y="1534.76" as="targetPoint" />
            <mxPoint as="offset" />
            <Array as="points">
              <mxPoint x="1430" y="1580" />
            </Array>
          </mxGeometry>
        </mxCell>
        <mxCell id="exqZRgO2Eq1xU3M3Er-l-176" value="User Super&amp;nbsp;&lt;div&gt;dan Admin&lt;/div&gt;" style="shape=umlLifeline;perimeter=lifelinePerimeter;html=1;container=1;dropTarget=0;collapsible=0;recursiveResize=0;outlineConnect=0;portConstraint=eastwest;newEdgeStyle={&quot;curved&quot;:0,&quot;rounded&quot;:0};participant=umlActor;labelPosition=center;verticalLabelPosition=top;align=center;verticalAlign=bottom;" vertex="1" parent="1">
          <mxGeometry x="1160" y="2120" width="20" height="340" as="geometry" />
        </mxCell>
        <mxCell id="exqZRgO2Eq1xU3M3Er-l-177" value="" style="html=1;points=[[0,0,0,0,5],[0,1,0,0,-5],[1,0,0,0,5],[1,1,0,0,-5]];perimeter=orthogonalPerimeter;outlineConnect=0;targetShapes=umlLifeline;portConstraint=eastwest;newEdgeStyle={&quot;curved&quot;:0,&quot;rounded&quot;:0};" vertex="1" parent="exqZRgO2Eq1xU3M3Er-l-176">
          <mxGeometry x="5" y="70" width="10" height="130" as="geometry" />
        </mxCell>
        <mxCell id="exqZRgO2Eq1xU3M3Er-l-178" value="View&lt;div&gt;Kategori Produk&lt;/div&gt;" style="shape=umlLifeline;perimeter=lifelinePerimeter;html=1;container=1;dropTarget=0;collapsible=0;recursiveResize=0;outlineConnect=0;portConstraint=eastwest;newEdgeStyle={&quot;curved&quot;:0,&quot;rounded&quot;:0};participant=umlBoundary;labelPosition=center;verticalLabelPosition=top;align=center;verticalAlign=bottom;" vertex="1" parent="1">
          <mxGeometry x="1280" y="2120" width="50" height="340" as="geometry" />
        </mxCell>
        <mxCell id="exqZRgO2Eq1xU3M3Er-l-179" value="" style="html=1;points=[[0,0,0,0,5],[0,1,0,0,-5],[1,0,0,0,5],[1,1,0,0,-5]];perimeter=orthogonalPerimeter;outlineConnect=0;targetShapes=umlLifeline;portConstraint=eastwest;newEdgeStyle={&quot;curved&quot;:0,&quot;rounded&quot;:0};" vertex="1" parent="exqZRgO2Eq1xU3M3Er-l-178">
          <mxGeometry x="20" y="70" width="10" height="150" as="geometry" />
        </mxCell>
        <mxCell id="exqZRgO2Eq1xU3M3Er-l-180" value="" style="html=1;points=[[0,0,0,0,5],[0,1,0,0,-5],[1,0,0,0,5],[1,1,0,0,-5]];perimeter=orthogonalPerimeter;outlineConnect=0;targetShapes=umlLifeline;portConstraint=eastwest;newEdgeStyle={&quot;curved&quot;:0,&quot;rounded&quot;:0};" vertex="1" parent="exqZRgO2Eq1xU3M3Er-l-178">
          <mxGeometry x="20" y="290" width="10" height="30" as="geometry" />
        </mxCell>
        <mxCell id="exqZRgO2Eq1xU3M3Er-l-181" value="Model&amp;nbsp;&lt;div&gt;&lt;span style=&quot;text-wrap: nowrap;&quot;&gt;Kategori Produk&lt;/span&gt;&lt;/div&gt;" style="shape=umlLifeline;perimeter=lifelinePerimeter;whiteSpace=wrap;html=1;container=1;dropTarget=0;collapsible=0;recursiveResize=0;outlineConnect=0;portConstraint=eastwest;newEdgeStyle={&quot;curved&quot;:0,&quot;rounded&quot;:0};participant=umlEntity;labelPosition=center;verticalLabelPosition=top;align=center;verticalAlign=bottom;" vertex="1" parent="1">
          <mxGeometry x="1530" y="2120" width="40" height="340" as="geometry" />
        </mxCell>
        <mxCell id="exqZRgO2Eq1xU3M3Er-l-182" value="" style="html=1;points=[[0,0,0,0,5],[0,1,0,0,-5],[1,0,0,0,5],[1,1,0,0,-5]];perimeter=orthogonalPerimeter;outlineConnect=0;targetShapes=umlLifeline;portConstraint=eastwest;newEdgeStyle={&quot;curved&quot;:0,&quot;rounded&quot;:0};" vertex="1" parent="exqZRgO2Eq1xU3M3Er-l-181">
          <mxGeometry x="15" y="230" width="10" height="40" as="geometry" />
        </mxCell>
        <mxCell id="exqZRgO2Eq1xU3M3Er-l-185" value="Controller&lt;div&gt;Kategori Produk&lt;br&gt;&lt;/div&gt;" style="shape=umlLifeline;perimeter=lifelinePerimeter;html=1;container=1;dropTarget=0;collapsible=0;recursiveResize=0;outlineConnect=0;portConstraint=eastwest;newEdgeStyle={&quot;curved&quot;:0,&quot;rounded&quot;:0};participant=umlControl;labelPosition=center;verticalLabelPosition=top;align=center;verticalAlign=bottom;" vertex="1" parent="1">
          <mxGeometry x="1410" y="2120" width="40" height="340" as="geometry" />
        </mxCell>
        <mxCell id="exqZRgO2Eq1xU3M3Er-l-186" value="" style="html=1;points=[[0,0,0,0,5],[0,1,0,0,-5],[1,0,0,0,5],[1,1,0,0,-5]];perimeter=orthogonalPerimeter;outlineConnect=0;targetShapes=umlLifeline;portConstraint=eastwest;newEdgeStyle={&quot;curved&quot;:0,&quot;rounded&quot;:0};" vertex="1" parent="exqZRgO2Eq1xU3M3Er-l-185">
          <mxGeometry x="15" y="220" width="10" height="70" as="geometry" />
        </mxCell>
        <mxCell id="exqZRgO2Eq1xU3M3Er-l-190" value="Akses View&lt;div&gt;Kategori Produk&lt;/div&gt;" style="html=1;verticalAlign=bottom;endArrow=block;curved=0;rounded=0;labelBackgroundColor=none;labelPosition=center;verticalLabelPosition=top;align=center;" edge="1" parent="1" source="exqZRgO2Eq1xU3M3Er-l-177" target="exqZRgO2Eq1xU3M3Er-l-179">
          <mxGeometry x="-0.0028" width="80" relative="1" as="geometry">
            <mxPoint x="1175" y="2189.5" as="sourcePoint" />
            <mxPoint x="1300" y="2189.5" as="targetPoint" />
            <mxPoint as="offset" />
            <Array as="points">
              <mxPoint x="1240" y="2190" />
            </Array>
          </mxGeometry>
        </mxCell>
        <mxCell id="exqZRgO2Eq1xU3M3Er-l-191" value="Tabel Data&lt;div&gt;&lt;span style=&quot;font-size: 12px;&quot;&gt;Kategori Produk&lt;/span&gt;&lt;/div&gt;" style="html=1;verticalAlign=bottom;endArrow=open;dashed=1;endSize=8;curved=0;rounded=0;labelBackgroundColor=none;" edge="1" parent="1" source="exqZRgO2Eq1xU3M3Er-l-179" target="exqZRgO2Eq1xU3M3Er-l-177">
          <mxGeometry relative="1" as="geometry">
            <mxPoint x="1300" y="2210" as="sourcePoint" />
            <mxPoint x="1175" y="2210" as="targetPoint" />
            <Array as="points">
              <mxPoint x="1240" y="2230" />
            </Array>
          </mxGeometry>
        </mxCell>
        <mxCell id="exqZRgO2Eq1xU3M3Er-l-192" value="Klik &#39;Hapus&#39; Data Terpilih" style="html=1;verticalAlign=bottom;endArrow=block;curved=0;rounded=0;labelBackgroundColor=none;labelPosition=center;verticalLabelPosition=top;align=center;" edge="1" parent="1" source="exqZRgO2Eq1xU3M3Er-l-177" target="exqZRgO2Eq1xU3M3Er-l-179">
          <mxGeometry x="-0.0028" width="80" relative="1" as="geometry">
            <mxPoint x="1175" y="2250" as="sourcePoint" />
            <mxPoint x="1300" y="2250" as="targetPoint" />
            <mxPoint as="offset" />
            <Array as="points">
              <mxPoint x="1240" y="2260" />
            </Array>
          </mxGeometry>
        </mxCell>
        <mxCell id="exqZRgO2Eq1xU3M3Er-l-193" value="Post Data" style="html=1;verticalAlign=bottom;endArrow=block;curved=0;rounded=0;labelBackgroundColor=none;labelPosition=center;verticalLabelPosition=top;align=center;" edge="1" parent="1" source="exqZRgO2Eq1xU3M3Er-l-186">
          <mxGeometry x="-0.0028" width="80" relative="1" as="geometry">
            <mxPoint x="1430" y="2280" as="sourcePoint" />
            <mxPoint x="1550" y="2350" as="targetPoint" />
            <mxPoint as="offset" />
            <Array as="points">
              <mxPoint x="1490" y="2350" />
            </Array>
          </mxGeometry>
        </mxCell>
        <mxCell id="exqZRgO2Eq1xU3M3Er-l-194" value="Return Status" style="html=1;verticalAlign=bottom;endArrow=open;dashed=1;endSize=8;curved=0;rounded=0;" edge="1" parent="1" source="exqZRgO2Eq1xU3M3Er-l-182" target="exqZRgO2Eq1xU3M3Er-l-186">
          <mxGeometry relative="1" as="geometry">
            <mxPoint x="1530" y="2340" as="sourcePoint" />
            <mxPoint x="1405" y="2340" as="targetPoint" />
            <Array as="points">
              <mxPoint x="1490" y="2390" />
            </Array>
          </mxGeometry>
        </mxCell>
        <mxCell id="exqZRgO2Eq1xU3M3Er-l-196" value="Delete Data" style="html=1;verticalAlign=middle;endArrow=block;rounded=0;labelBackgroundColor=none;labelPosition=right;verticalLabelPosition=middle;align=left;edgeStyle=orthogonalEdgeStyle;" edge="1" parent="1" source="exqZRgO2Eq1xU3M3Er-l-182" target="exqZRgO2Eq1xU3M3Er-l-182">
          <mxGeometry x="-0.0028" width="80" relative="1" as="geometry">
            <mxPoint x="1550" y="2280" as="sourcePoint" />
            <mxPoint x="1660" y="2280" as="targetPoint" />
            <mxPoint as="offset" />
          </mxGeometry>
        </mxCell>
        <mxCell id="exqZRgO2Eq1xU3M3Er-l-206" value="Redirect View&lt;div&gt;&lt;span style=&quot;font-size: 12px; background-color: rgb(251, 251, 251);&quot;&gt;Kategori Produk&lt;/span&gt;&lt;/div&gt;" style="html=1;verticalAlign=bottom;endArrow=block;curved=0;rounded=0;labelBackgroundColor=default;labelPosition=center;verticalLabelPosition=top;align=center;" edge="1" parent="1" source="exqZRgO2Eq1xU3M3Er-l-186" target="exqZRgO2Eq1xU3M3Er-l-180">
          <mxGeometry x="-0.0028" width="80" relative="1" as="geometry">
            <mxPoint x="1547.5" y="2410" as="sourcePoint" />
            <mxPoint x="1320" y="2410" as="targetPoint" />
            <mxPoint as="offset" />
            <Array as="points" />
          </mxGeometry>
        </mxCell>
        <mxCell id="exqZRgO2Eq1xU3M3Er-l-207" value="Post Data" style="html=1;verticalAlign=bottom;endArrow=block;curved=0;rounded=0;labelBackgroundColor=default;labelPosition=center;verticalLabelPosition=top;align=center;" edge="1" parent="1" source="exqZRgO2Eq1xU3M3Er-l-179" target="exqZRgO2Eq1xU3M3Er-l-186">
          <mxGeometry x="0.1064" width="80" relative="1" as="geometry">
            <mxPoint x="1300" y="2260" as="sourcePoint" />
            <mxPoint x="1425" y="2260" as="targetPoint" />
            <mxPoint as="offset" />
            <Array as="points">
              <mxPoint x="1400" y="2340" />
            </Array>
          </mxGeometry>
        </mxCell>
        <mxCell id="exqZRgO2Eq1xU3M3Er-l-208" value="Return Pesan Konfirmasi" style="html=1;verticalAlign=bottom;endArrow=open;dashed=1;endSize=8;curved=0;rounded=0;labelBackgroundColor=none;" edge="1" parent="1" source="exqZRgO2Eq1xU3M3Er-l-179" target="exqZRgO2Eq1xU3M3Er-l-177">
          <mxGeometry relative="1" as="geometry">
            <mxPoint x="1310" y="2240" as="sourcePoint" />
            <mxPoint x="1185" y="2240" as="targetPoint" />
            <Array as="points">
              <mxPoint x="1240" y="2290" />
            </Array>
          </mxGeometry>
        </mxCell>
        <mxCell id="exqZRgO2Eq1xU3M3Er-l-209" value="Klik OK" style="html=1;verticalAlign=bottom;endArrow=block;curved=0;rounded=0;labelBackgroundColor=none;labelPosition=center;verticalLabelPosition=top;align=center;" edge="1" parent="1" source="exqZRgO2Eq1xU3M3Er-l-177" target="exqZRgO2Eq1xU3M3Er-l-179">
          <mxGeometry x="-0.0028" width="80" relative="1" as="geometry">
            <mxPoint x="1185" y="2270" as="sourcePoint" />
            <mxPoint x="1310" y="2270" as="targetPoint" />
            <mxPoint as="offset" />
            <Array as="points">
              <mxPoint x="1250" y="2320" />
            </Array>
          </mxGeometry>
        </mxCell>
        <mxCell id="exqZRgO2Eq1xU3M3Er-l-210" value="User Super&amp;nbsp;&lt;div&gt;dan Admin&lt;/div&gt;" style="shape=umlLifeline;perimeter=lifelinePerimeter;html=1;container=1;dropTarget=0;collapsible=0;recursiveResize=0;outlineConnect=0;portConstraint=eastwest;newEdgeStyle={&quot;curved&quot;:0,&quot;rounded&quot;:0};participant=umlActor;labelPosition=center;verticalLabelPosition=top;align=center;verticalAlign=bottom;" vertex="1" parent="1">
          <mxGeometry x="1800" y="1280" width="20" height="340" as="geometry" />
        </mxCell>
        <mxCell id="exqZRgO2Eq1xU3M3Er-l-211" value="" style="html=1;points=[[0,0,0,0,5],[0,1,0,0,-5],[1,0,0,0,5],[1,1,0,0,-5]];perimeter=orthogonalPerimeter;outlineConnect=0;targetShapes=umlLifeline;portConstraint=eastwest;newEdgeStyle={&quot;curved&quot;:0,&quot;rounded&quot;:0};" vertex="1" parent="exqZRgO2Eq1xU3M3Er-l-210">
          <mxGeometry x="5" y="70" width="10" height="90" as="geometry" />
        </mxCell>
        <mxCell id="exqZRgO2Eq1xU3M3Er-l-212" value="View Form&lt;div&gt;Tambah Data&lt;/div&gt;" style="shape=umlLifeline;perimeter=lifelinePerimeter;html=1;container=1;dropTarget=0;collapsible=0;recursiveResize=0;outlineConnect=0;portConstraint=eastwest;newEdgeStyle={&quot;curved&quot;:0,&quot;rounded&quot;:0};participant=umlBoundary;labelPosition=center;verticalLabelPosition=top;align=center;verticalAlign=bottom;" vertex="1" parent="1">
          <mxGeometry x="2050" y="1280" width="50" height="340" as="geometry" />
        </mxCell>
        <mxCell id="exqZRgO2Eq1xU3M3Er-l-213" value="" style="html=1;points=[[0,0,0,0,5],[0,1,0,0,-5],[1,0,0,0,5],[1,1,0,0,-5]];perimeter=orthogonalPerimeter;outlineConnect=0;targetShapes=umlLifeline;portConstraint=eastwest;newEdgeStyle={&quot;curved&quot;:0,&quot;rounded&quot;:0};" vertex="1" parent="exqZRgO2Eq1xU3M3Er-l-212">
          <mxGeometry x="20" y="120" width="10" height="150" as="geometry" />
        </mxCell>
        <mxCell id="exqZRgO2Eq1xU3M3Er-l-214" value="Model&lt;div&gt;Produk&lt;/div&gt;" style="shape=umlLifeline;perimeter=lifelinePerimeter;html=1;container=1;dropTarget=0;collapsible=0;recursiveResize=0;outlineConnect=0;portConstraint=eastwest;newEdgeStyle={&quot;curved&quot;:0,&quot;rounded&quot;:0};participant=umlEntity;labelPosition=center;verticalLabelPosition=top;align=center;verticalAlign=bottom;" vertex="1" parent="1">
          <mxGeometry x="2300" y="1280" width="40" height="340" as="geometry" />
        </mxCell>
        <mxCell id="exqZRgO2Eq1xU3M3Er-l-215" value="" style="html=1;points=[[0,0,0,0,5],[0,1,0,0,-5],[1,0,0,0,5],[1,1,0,0,-5]];perimeter=orthogonalPerimeter;outlineConnect=0;targetShapes=umlLifeline;portConstraint=eastwest;newEdgeStyle={&quot;curved&quot;:0,&quot;rounded&quot;:0};" vertex="1" parent="exqZRgO2Eq1xU3M3Er-l-214">
          <mxGeometry x="15" y="230" width="10" height="30" as="geometry" />
        </mxCell>
        <mxCell id="exqZRgO2Eq1xU3M3Er-l-216" value="Controller&lt;div&gt;Produk&lt;/div&gt;" style="shape=umlLifeline;perimeter=lifelinePerimeter;html=1;container=1;dropTarget=0;collapsible=0;recursiveResize=0;outlineConnect=0;portConstraint=eastwest;newEdgeStyle={&quot;curved&quot;:0,&quot;rounded&quot;:0};participant=umlControl;labelPosition=center;verticalLabelPosition=top;align=center;verticalAlign=bottom;" vertex="1" parent="1">
          <mxGeometry x="2180" y="1280" width="40" height="340" as="geometry" />
        </mxCell>
        <mxCell id="exqZRgO2Eq1xU3M3Er-l-217" value="" style="html=1;points=[[0,0,0,0,5],[0,1,0,0,-5],[1,0,0,0,5],[1,1,0,0,-5]];perimeter=orthogonalPerimeter;outlineConnect=0;targetShapes=umlLifeline;portConstraint=eastwest;newEdgeStyle={&quot;curved&quot;:0,&quot;rounded&quot;:0};" vertex="1" parent="exqZRgO2Eq1xU3M3Er-l-216">
          <mxGeometry x="15" y="170" width="10" height="60" as="geometry" />
        </mxCell>
        <mxCell id="exqZRgO2Eq1xU3M3Er-l-218" value="" style="html=1;points=[[0,0,0,0,5],[0,1,0,0,-5],[1,0,0,0,5],[1,1,0,0,-5]];perimeter=orthogonalPerimeter;outlineConnect=0;targetShapes=umlLifeline;portConstraint=eastwest;newEdgeStyle={&quot;curved&quot;:0,&quot;rounded&quot;:0};" vertex="1" parent="exqZRgO2Eq1xU3M3Er-l-216">
          <mxGeometry x="15" y="260" width="10" height="40" as="geometry" />
        </mxCell>
        <mxCell id="exqZRgO2Eq1xU3M3Er-l-219" value="Validating Data" style="html=1;verticalAlign=middle;endArrow=block;rounded=0;labelBackgroundColor=none;labelPosition=right;verticalLabelPosition=middle;align=left;edgeStyle=orthogonalEdgeStyle;" edge="1" parent="exqZRgO2Eq1xU3M3Er-l-216" source="exqZRgO2Eq1xU3M3Er-l-217" target="exqZRgO2Eq1xU3M3Er-l-217">
          <mxGeometry width="80" relative="1" as="geometry">
            <mxPoint x="35" y="150" as="sourcePoint" />
            <mxPoint x="35" y="170" as="targetPoint" />
            <mxPoint as="offset" />
            <Array as="points">
              <mxPoint x="55" y="180" />
              <mxPoint x="55" y="200" />
            </Array>
          </mxGeometry>
        </mxCell>
        <mxCell id="exqZRgO2Eq1xU3M3Er-l-220" value="Akses View&lt;div&gt;Daftar Produk&lt;/div&gt;" style="html=1;verticalAlign=bottom;endArrow=block;curved=0;rounded=0;labelBackgroundColor=none;labelPosition=center;verticalLabelPosition=top;align=center;" edge="1" parent="1" source="exqZRgO2Eq1xU3M3Er-l-211" target="exqZRgO2Eq1xU3M3Er-l-262">
          <mxGeometry x="-0.0028" width="80" relative="1" as="geometry">
            <mxPoint x="1815" y="1349.5" as="sourcePoint" />
            <mxPoint x="1910" y="1350" as="targetPoint" />
            <mxPoint as="offset" />
            <Array as="points">
              <mxPoint x="1880" y="1350" />
            </Array>
          </mxGeometry>
        </mxCell>
        <mxCell id="exqZRgO2Eq1xU3M3Er-l-221" value="Tabel Data&amp;nbsp;&lt;span style=&quot;background-color: initial;&quot;&gt;Produk&lt;/span&gt;" style="html=1;verticalAlign=bottom;endArrow=open;dashed=1;endSize=8;curved=0;rounded=0;labelBackgroundColor=none;" edge="1" parent="1" source="exqZRgO2Eq1xU3M3Er-l-262" target="exqZRgO2Eq1xU3M3Er-l-211">
          <mxGeometry relative="1" as="geometry">
            <mxPoint x="1940" y="1379.72" as="sourcePoint" />
            <mxPoint x="1815" y="1379.72" as="targetPoint" />
            <Array as="points">
              <mxPoint x="1880" y="1380" />
            </Array>
          </mxGeometry>
        </mxCell>
        <mxCell id="exqZRgO2Eq1xU3M3Er-l-222" value="Post Data" style="html=1;verticalAlign=bottom;endArrow=block;curved=0;rounded=0;labelBackgroundColor=none;labelPosition=center;verticalLabelPosition=top;align=center;" edge="1" parent="1" source="exqZRgO2Eq1xU3M3Er-l-213" target="exqZRgO2Eq1xU3M3Er-l-217">
          <mxGeometry x="-0.0028" width="80" relative="1" as="geometry">
            <mxPoint x="2070" y="1420" as="sourcePoint" />
            <mxPoint x="2195" y="1420" as="targetPoint" />
            <mxPoint as="offset" />
            <Array as="points">
              <mxPoint x="2140" y="1450" />
            </Array>
          </mxGeometry>
        </mxCell>
        <mxCell id="exqZRgO2Eq1xU3M3Er-l-223" value="Post Data" style="html=1;verticalAlign=bottom;endArrow=block;curved=0;rounded=0;labelBackgroundColor=none;labelPosition=center;verticalLabelPosition=top;align=center;" edge="1" parent="1" source="exqZRgO2Eq1xU3M3Er-l-217" target="exqZRgO2Eq1xU3M3Er-l-215">
          <mxGeometry x="-0.0028" width="80" relative="1" as="geometry">
            <mxPoint x="2200" y="1440" as="sourcePoint" />
            <mxPoint x="2315" y="1440" as="targetPoint" />
            <mxPoint as="offset" />
            <Array as="points">
              <mxPoint x="2230" y="1510" />
            </Array>
          </mxGeometry>
        </mxCell>
        <mxCell id="exqZRgO2Eq1xU3M3Er-l-224" value="Return Status" style="html=1;verticalAlign=bottom;endArrow=open;dashed=1;endSize=8;curved=0;rounded=0;" edge="1" parent="1" source="exqZRgO2Eq1xU3M3Er-l-215" target="exqZRgO2Eq1xU3M3Er-l-218">
          <mxGeometry relative="1" as="geometry">
            <mxPoint x="2300" y="1500" as="sourcePoint" />
            <mxPoint x="2175" y="1500" as="targetPoint" />
            <Array as="points" />
          </mxGeometry>
        </mxCell>
        <mxCell id="exqZRgO2Eq1xU3M3Er-l-225" value="Return Pesan&lt;div&gt;Gagal&lt;/div&gt;" style="html=1;verticalAlign=bottom;endArrow=open;dashed=1;endSize=8;curved=0;rounded=0;" edge="1" parent="1" source="exqZRgO2Eq1xU3M3Er-l-218" target="exqZRgO2Eq1xU3M3Er-l-213">
          <mxGeometry relative="1" as="geometry">
            <mxPoint x="2190" y="1530" as="sourcePoint" />
            <mxPoint x="2080" y="1530" as="targetPoint" />
            <Array as="points">
              <mxPoint x="2130" y="1550" />
            </Array>
          </mxGeometry>
        </mxCell>
        <mxCell id="exqZRgO2Eq1xU3M3Er-l-226" value="View&lt;div&gt;Daftar Produk&lt;/div&gt;" style="shape=umlLifeline;perimeter=lifelinePerimeter;html=1;container=1;dropTarget=0;collapsible=0;recursiveResize=0;outlineConnect=0;portConstraint=eastwest;newEdgeStyle={&quot;curved&quot;:0,&quot;rounded&quot;:0};participant=umlBoundary;labelPosition=center;verticalLabelPosition=top;align=center;verticalAlign=bottom;" vertex="1" parent="1">
          <mxGeometry x="1920" y="1280" width="50" height="340" as="geometry" />
        </mxCell>
        <mxCell id="exqZRgO2Eq1xU3M3Er-l-227" value="" style="html=1;points=[[0,0,0,0,5],[0,1,0,0,-5],[1,0,0,0,5],[1,1,0,0,-5]];perimeter=orthogonalPerimeter;outlineConnect=0;targetShapes=umlLifeline;portConstraint=eastwest;newEdgeStyle={&quot;curved&quot;:0,&quot;rounded&quot;:0};" vertex="1" parent="exqZRgO2Eq1xU3M3Er-l-226">
          <mxGeometry x="20" y="300" width="10" height="20" as="geometry" />
        </mxCell>
        <mxCell id="exqZRgO2Eq1xU3M3Er-l-228" value="Insert Data" style="html=1;verticalAlign=middle;endArrow=block;rounded=0;labelBackgroundColor=none;labelPosition=right;verticalLabelPosition=middle;align=left;edgeStyle=orthogonalEdgeStyle;" edge="1" parent="1" source="exqZRgO2Eq1xU3M3Er-l-215" target="exqZRgO2Eq1xU3M3Er-l-215">
          <mxGeometry x="-0.0028" width="80" relative="1" as="geometry">
            <mxPoint x="2320" y="1440" as="sourcePoint" />
            <mxPoint x="2430" y="1440" as="targetPoint" />
            <mxPoint as="offset" />
          </mxGeometry>
        </mxCell>
        <mxCell id="exqZRgO2Eq1xU3M3Er-l-229" value="Return Pesan&lt;div&gt;Kesalahan&lt;/div&gt;" style="html=1;verticalAlign=bottom;endArrow=open;dashed=1;endSize=8;curved=0;rounded=0;" edge="1" parent="1" source="exqZRgO2Eq1xU3M3Er-l-217" target="exqZRgO2Eq1xU3M3Er-l-213">
          <mxGeometry relative="1" as="geometry">
            <mxPoint x="2195" y="1460" as="sourcePoint" />
            <mxPoint x="2080" y="1460" as="targetPoint" />
            <Array as="points">
              <mxPoint x="2140" y="1490" />
            </Array>
          </mxGeometry>
        </mxCell>
        <mxCell id="exqZRgO2Eq1xU3M3Er-l-230" value="User Super&amp;nbsp;&lt;div&gt;dan Admin&lt;/div&gt;" style="shape=umlLifeline;perimeter=lifelinePerimeter;html=1;container=1;dropTarget=0;collapsible=0;recursiveResize=0;outlineConnect=0;portConstraint=eastwest;newEdgeStyle={&quot;curved&quot;:0,&quot;rounded&quot;:0};participant=umlActor;labelPosition=center;verticalLabelPosition=top;align=center;verticalAlign=bottom;" vertex="1" parent="1">
          <mxGeometry x="1800" y="1680" width="20" height="380" as="geometry" />
        </mxCell>
        <mxCell id="exqZRgO2Eq1xU3M3Er-l-231" value="" style="html=1;points=[[0,0,0,0,5],[0,1,0,0,-5],[1,0,0,0,5],[1,1,0,0,-5]];perimeter=orthogonalPerimeter;outlineConnect=0;targetShapes=umlLifeline;portConstraint=eastwest;newEdgeStyle={&quot;curved&quot;:0,&quot;rounded&quot;:0};" vertex="1" parent="exqZRgO2Eq1xU3M3Er-l-230">
          <mxGeometry x="5" y="70" width="10" height="150" as="geometry" />
        </mxCell>
        <mxCell id="exqZRgO2Eq1xU3M3Er-l-232" value="View&lt;div&gt;Daftar Produk&lt;/div&gt;" style="shape=umlLifeline;perimeter=lifelinePerimeter;html=1;container=1;dropTarget=0;collapsible=0;recursiveResize=0;outlineConnect=0;portConstraint=eastwest;newEdgeStyle={&quot;curved&quot;:0,&quot;rounded&quot;:0};participant=umlBoundary;labelPosition=center;verticalLabelPosition=top;align=center;verticalAlign=bottom;" vertex="1" parent="1">
          <mxGeometry x="1930" y="1680" width="50" height="380" as="geometry" />
        </mxCell>
        <mxCell id="exqZRgO2Eq1xU3M3Er-l-233" value="" style="html=1;points=[[0,0,0,0,5],[0,1,0,0,-5],[1,0,0,0,5],[1,1,0,0,-5]];perimeter=orthogonalPerimeter;outlineConnect=0;targetShapes=umlLifeline;portConstraint=eastwest;newEdgeStyle={&quot;curved&quot;:0,&quot;rounded&quot;:0};" vertex="1" parent="exqZRgO2Eq1xU3M3Er-l-232">
          <mxGeometry x="20" y="70" width="10" height="70" as="geometry" />
        </mxCell>
        <mxCell id="exqZRgO2Eq1xU3M3Er-l-234" value="" style="html=1;points=[[0,0,0,0,5],[0,1,0,0,-5],[1,0,0,0,5],[1,1,0,0,-5]];perimeter=orthogonalPerimeter;outlineConnect=0;targetShapes=umlLifeline;portConstraint=eastwest;newEdgeStyle={&quot;curved&quot;:0,&quot;rounded&quot;:0};" vertex="1" parent="exqZRgO2Eq1xU3M3Er-l-232">
          <mxGeometry x="20" y="340" width="10" height="20" as="geometry" />
        </mxCell>
        <mxCell id="exqZRgO2Eq1xU3M3Er-l-235" value="Model&lt;div&gt;&lt;span style=&quot;text-wrap: nowrap; background-color: initial;&quot;&gt;Produk&lt;/span&gt;&lt;/div&gt;" style="shape=umlLifeline;perimeter=lifelinePerimeter;html=1;container=1;dropTarget=0;collapsible=0;recursiveResize=0;outlineConnect=0;portConstraint=eastwest;newEdgeStyle={&quot;curved&quot;:0,&quot;rounded&quot;:0};participant=umlEntity;labelPosition=center;verticalLabelPosition=top;align=center;verticalAlign=bottom;" vertex="1" parent="1">
          <mxGeometry x="2290" y="1680" width="40" height="380" as="geometry" />
        </mxCell>
        <mxCell id="exqZRgO2Eq1xU3M3Er-l-236" value="" style="html=1;points=[[0,0,0,0,5],[0,1,0,0,-5],[1,0,0,0,5],[1,1,0,0,-5]];perimeter=orthogonalPerimeter;outlineConnect=0;targetShapes=umlLifeline;portConstraint=eastwest;newEdgeStyle={&quot;curved&quot;:0,&quot;rounded&quot;:0};" vertex="1" parent="exqZRgO2Eq1xU3M3Er-l-235">
          <mxGeometry x="15" y="150" width="10" height="30" as="geometry" />
        </mxCell>
        <mxCell id="exqZRgO2Eq1xU3M3Er-l-237" value="" style="html=1;points=[[0,0,0,0,5],[0,1,0,0,-5],[1,0,0,0,5],[1,1,0,0,-5]];perimeter=orthogonalPerimeter;outlineConnect=0;targetShapes=umlLifeline;portConstraint=eastwest;newEdgeStyle={&quot;curved&quot;:0,&quot;rounded&quot;:0};" vertex="1" parent="exqZRgO2Eq1xU3M3Er-l-235">
          <mxGeometry x="15" y="270" width="10" height="30" as="geometry" />
        </mxCell>
        <mxCell id="exqZRgO2Eq1xU3M3Er-l-238" value="Update Data" style="html=1;verticalAlign=middle;endArrow=block;rounded=0;labelBackgroundColor=none;labelPosition=right;verticalLabelPosition=middle;align=left;edgeStyle=orthogonalEdgeStyle;" edge="1" parent="exqZRgO2Eq1xU3M3Er-l-235" source="exqZRgO2Eq1xU3M3Er-l-237" target="exqZRgO2Eq1xU3M3Er-l-237">
          <mxGeometry x="-0.0028" width="80" relative="1" as="geometry">
            <mxPoint x="-100" y="249.43000000000006" as="sourcePoint" />
            <mxPoint x="10" y="249.43000000000006" as="targetPoint" />
            <mxPoint as="offset" />
          </mxGeometry>
        </mxCell>
        <mxCell id="exqZRgO2Eq1xU3M3Er-l-239" value="Controller&lt;div&gt;Kategori Produk&lt;br&gt;&lt;/div&gt;" style="shape=umlLifeline;perimeter=lifelinePerimeter;html=1;container=1;dropTarget=0;collapsible=0;recursiveResize=0;outlineConnect=0;portConstraint=eastwest;newEdgeStyle={&quot;curved&quot;:0,&quot;rounded&quot;:0};participant=umlControl;labelPosition=center;verticalLabelPosition=top;align=center;verticalAlign=bottom;" vertex="1" parent="1">
          <mxGeometry x="2170" y="1680" width="40" height="380" as="geometry" />
        </mxCell>
        <mxCell id="exqZRgO2Eq1xU3M3Er-l-240" value="" style="html=1;points=[[0,0,0,0,5],[0,1,0,0,-5],[1,0,0,0,5],[1,1,0,0,-5]];perimeter=orthogonalPerimeter;outlineConnect=0;targetShapes=umlLifeline;portConstraint=eastwest;newEdgeStyle={&quot;curved&quot;:0,&quot;rounded&quot;:0};" vertex="1" parent="exqZRgO2Eq1xU3M3Er-l-239">
          <mxGeometry x="15" y="140" width="10" height="50" as="geometry" />
        </mxCell>
        <mxCell id="exqZRgO2Eq1xU3M3Er-l-241" value="" style="html=1;points=[[0,0,0,0,5],[0,1,0,0,-5],[1,0,0,0,5],[1,1,0,0,-5]];perimeter=orthogonalPerimeter;outlineConnect=0;targetShapes=umlLifeline;portConstraint=eastwest;newEdgeStyle={&quot;curved&quot;:0,&quot;rounded&quot;:0};" vertex="1" parent="exqZRgO2Eq1xU3M3Er-l-239">
          <mxGeometry x="15" y="230" width="10" height="50" as="geometry" />
        </mxCell>
        <mxCell id="exqZRgO2Eq1xU3M3Er-l-242" value="" style="html=1;points=[[0,0,0,0,5],[0,1,0,0,-5],[1,0,0,0,5],[1,1,0,0,-5]];perimeter=orthogonalPerimeter;outlineConnect=0;targetShapes=umlLifeline;portConstraint=eastwest;newEdgeStyle={&quot;curved&quot;:0,&quot;rounded&quot;:0};" vertex="1" parent="exqZRgO2Eq1xU3M3Er-l-239">
          <mxGeometry x="15" y="300" width="10" height="40" as="geometry" />
        </mxCell>
        <mxCell id="exqZRgO2Eq1xU3M3Er-l-243" value="Validating Data" style="html=1;verticalAlign=middle;endArrow=block;rounded=0;labelBackgroundColor=none;labelPosition=right;verticalLabelPosition=middle;align=left;edgeStyle=orthogonalEdgeStyle;" edge="1" parent="exqZRgO2Eq1xU3M3Er-l-239" source="exqZRgO2Eq1xU3M3Er-l-241" target="exqZRgO2Eq1xU3M3Er-l-241">
          <mxGeometry width="80" relative="1" as="geometry">
            <mxPoint x="30" y="230" as="sourcePoint" />
            <mxPoint x="30" y="250" as="targetPoint" />
            <mxPoint as="offset" />
            <Array as="points">
              <mxPoint x="60" y="240" />
              <mxPoint x="60" y="260" />
            </Array>
          </mxGeometry>
        </mxCell>
        <mxCell id="exqZRgO2Eq1xU3M3Er-l-244" value="Akses View&lt;div&gt;Daftar Produk&lt;/div&gt;" style="html=1;verticalAlign=bottom;endArrow=block;curved=0;rounded=0;labelBackgroundColor=none;labelPosition=center;verticalLabelPosition=top;align=center;" edge="1" parent="1" source="exqZRgO2Eq1xU3M3Er-l-231" target="exqZRgO2Eq1xU3M3Er-l-233">
          <mxGeometry x="-0.0028" width="80" relative="1" as="geometry">
            <mxPoint x="1815" y="1749.5" as="sourcePoint" />
            <mxPoint x="1940" y="1749.5" as="targetPoint" />
            <mxPoint as="offset" />
            <Array as="points">
              <mxPoint x="1880" y="1750" />
            </Array>
          </mxGeometry>
        </mxCell>
        <mxCell id="exqZRgO2Eq1xU3M3Er-l-245" value="Tabel Data&amp;nbsp;&lt;span style=&quot;font-size: 12px; background-color: initial;&quot;&gt;Produk&lt;/span&gt;" style="html=1;verticalAlign=bottom;endArrow=open;dashed=1;endSize=8;curved=0;rounded=0;labelBackgroundColor=none;" edge="1" parent="1" source="exqZRgO2Eq1xU3M3Er-l-233" target="exqZRgO2Eq1xU3M3Er-l-231">
          <mxGeometry relative="1" as="geometry">
            <mxPoint x="1940" y="1770" as="sourcePoint" />
            <mxPoint x="1815" y="1770" as="targetPoint" />
            <Array as="points">
              <mxPoint x="1880" y="1780" />
            </Array>
          </mxGeometry>
        </mxCell>
        <mxCell id="exqZRgO2Eq1xU3M3Er-l-246" value="Klik &#39;Ubah&#39; Data Terpilih" style="html=1;verticalAlign=bottom;endArrow=block;curved=0;rounded=0;labelBackgroundColor=none;labelPosition=center;verticalLabelPosition=top;align=center;" edge="1" parent="1" source="exqZRgO2Eq1xU3M3Er-l-231" target="exqZRgO2Eq1xU3M3Er-l-233">
          <mxGeometry x="-0.0028" width="80" relative="1" as="geometry">
            <mxPoint x="1815" y="1810" as="sourcePoint" />
            <mxPoint x="1940" y="1810" as="targetPoint" />
            <mxPoint as="offset" />
            <Array as="points">
              <mxPoint x="1880" y="1810" />
            </Array>
          </mxGeometry>
        </mxCell>
        <mxCell id="exqZRgO2Eq1xU3M3Er-l-247" value="Get Data" style="html=1;verticalAlign=bottom;endArrow=block;curved=0;rounded=0;labelBackgroundColor=none;labelPosition=center;verticalLabelPosition=top;align=center;" edge="1" parent="1" source="exqZRgO2Eq1xU3M3Er-l-240" target="exqZRgO2Eq1xU3M3Er-l-236">
          <mxGeometry x="-0.0028" width="80" relative="1" as="geometry">
            <mxPoint x="2070" y="1840" as="sourcePoint" />
            <mxPoint x="2185" y="1840" as="targetPoint" />
            <mxPoint as="offset" />
            <Array as="points">
              <mxPoint x="2240" y="1830" />
            </Array>
          </mxGeometry>
        </mxCell>
        <mxCell id="exqZRgO2Eq1xU3M3Er-l-248" value="Return Data" style="html=1;verticalAlign=bottom;endArrow=open;dashed=1;endSize=8;curved=0;rounded=0;" edge="1" parent="1" source="exqZRgO2Eq1xU3M3Er-l-236" target="exqZRgO2Eq1xU3M3Er-l-240">
          <mxGeometry relative="1" as="geometry">
            <mxPoint x="2170" y="1900" as="sourcePoint" />
            <mxPoint x="2045" y="1900" as="targetPoint" />
            <Array as="points">
              <mxPoint x="2250" y="1860" />
            </Array>
          </mxGeometry>
        </mxCell>
        <mxCell id="exqZRgO2Eq1xU3M3Er-l-249" value="Return Pesan&lt;div&gt;Kesalahan&lt;/div&gt;" style="html=1;verticalAlign=bottom;endArrow=open;dashed=1;endSize=8;curved=0;rounded=0;" edge="1" parent="1" source="exqZRgO2Eq1xU3M3Er-l-241" target="exqZRgO2Eq1xU3M3Er-l-252">
          <mxGeometry relative="1" as="geometry">
            <mxPoint x="2060" y="1930" as="sourcePoint" />
            <mxPoint x="1950" y="1930" as="targetPoint" />
            <Array as="points">
              <mxPoint x="2130" y="1950" />
            </Array>
          </mxGeometry>
        </mxCell>
        <mxCell id="exqZRgO2Eq1xU3M3Er-l-250" value="Find Data" style="html=1;verticalAlign=middle;endArrow=block;rounded=0;labelBackgroundColor=none;labelPosition=right;verticalLabelPosition=middle;align=left;edgeStyle=orthogonalEdgeStyle;" edge="1" parent="1" source="exqZRgO2Eq1xU3M3Er-l-236" target="exqZRgO2Eq1xU3M3Er-l-236">
          <mxGeometry x="-0.0028" width="80" relative="1" as="geometry">
            <mxPoint x="2190" y="1840" as="sourcePoint" />
            <mxPoint x="2300" y="1840" as="targetPoint" />
            <mxPoint as="offset" />
          </mxGeometry>
        </mxCell>
        <mxCell id="exqZRgO2Eq1xU3M3Er-l-251" value="View Form&lt;div&gt;Ubah Data&lt;/div&gt;" style="shape=umlLifeline;perimeter=lifelinePerimeter;html=1;container=1;dropTarget=0;collapsible=0;recursiveResize=0;outlineConnect=0;portConstraint=eastwest;newEdgeStyle={&quot;curved&quot;:0,&quot;rounded&quot;:0};participant=umlBoundary;labelPosition=center;verticalLabelPosition=top;align=center;verticalAlign=bottom;" vertex="1" parent="1">
          <mxGeometry x="2050" y="1680" width="50" height="380" as="geometry" />
        </mxCell>
        <mxCell id="exqZRgO2Eq1xU3M3Er-l-252" value="" style="html=1;points=[[0,0,0,0,5],[0,1,0,0,-5],[1,0,0,0,5],[1,1,0,0,-5]];perimeter=orthogonalPerimeter;outlineConnect=0;targetShapes=umlLifeline;portConstraint=eastwest;newEdgeStyle={&quot;curved&quot;:0,&quot;rounded&quot;:0};" vertex="1" parent="exqZRgO2Eq1xU3M3Er-l-251">
          <mxGeometry x="20" y="190" width="10" height="120" as="geometry" />
        </mxCell>
        <mxCell id="exqZRgO2Eq1xU3M3Er-l-253" value="Return View" style="html=1;verticalAlign=bottom;endArrow=open;dashed=1;endSize=8;curved=0;rounded=0;" edge="1" parent="1">
          <mxGeometry relative="1" as="geometry">
            <mxPoint x="2190" y="1870" as="sourcePoint" />
            <mxPoint x="2080" y="1870" as="targetPoint" />
            <Array as="points">
              <mxPoint x="2135" y="1870" />
            </Array>
          </mxGeometry>
        </mxCell>
        <mxCell id="exqZRgO2Eq1xU3M3Er-l-254" value="Input Data" style="html=1;verticalAlign=bottom;endArrow=block;curved=0;rounded=0;labelBackgroundColor=default;labelPosition=center;verticalLabelPosition=top;align=center;" edge="1" parent="1" source="exqZRgO2Eq1xU3M3Er-l-231" target="exqZRgO2Eq1xU3M3Er-l-252">
          <mxGeometry x="-0.0028" width="80" relative="1" as="geometry">
            <mxPoint x="1810" y="1910" as="sourcePoint" />
            <mxPoint x="1935" y="1910" as="targetPoint" />
            <mxPoint as="offset" />
            <Array as="points">
              <mxPoint x="1920" y="1900" />
            </Array>
          </mxGeometry>
        </mxCell>
        <mxCell id="exqZRgO2Eq1xU3M3Er-l-255" value="Form Ubah Data" style="html=1;verticalAlign=bottom;endArrow=open;dashed=1;endSize=8;curved=0;rounded=0;" edge="1" parent="1" source="exqZRgO2Eq1xU3M3Er-l-252" target="exqZRgO2Eq1xU3M3Er-l-231">
          <mxGeometry relative="1" as="geometry">
            <mxPoint x="1990" y="1860" as="sourcePoint" />
            <mxPoint x="1880" y="1860" as="targetPoint" />
            <Array as="points">
              <mxPoint x="1935" y="1880" />
            </Array>
          </mxGeometry>
        </mxCell>
        <mxCell id="exqZRgO2Eq1xU3M3Er-l-256" value="Post Data" style="html=1;verticalAlign=bottom;endArrow=block;curved=0;rounded=0;labelBackgroundColor=none;labelPosition=center;verticalLabelPosition=top;align=center;" edge="1" parent="1" source="exqZRgO2Eq1xU3M3Er-l-252" target="exqZRgO2Eq1xU3M3Er-l-241">
          <mxGeometry x="-0.0028" width="80" relative="1" as="geometry">
            <mxPoint x="1960" y="1830" as="sourcePoint" />
            <mxPoint x="2195" y="1830" as="targetPoint" />
            <mxPoint as="offset" />
            <Array as="points">
              <mxPoint x="2120" y="1910" />
            </Array>
          </mxGeometry>
        </mxCell>
        <mxCell id="exqZRgO2Eq1xU3M3Er-l-257" value="Post Data" style="html=1;verticalAlign=bottom;endArrow=block;curved=0;rounded=0;labelBackgroundColor=none;labelPosition=center;verticalLabelPosition=top;align=center;" edge="1" parent="1" source="exqZRgO2Eq1xU3M3Er-l-241" target="exqZRgO2Eq1xU3M3Er-l-237">
          <mxGeometry x="-0.0028" width="80" relative="1" as="geometry">
            <mxPoint x="2195" y="1919.43" as="sourcePoint" />
            <mxPoint x="2185" y="1929.43" as="targetPoint" />
            <mxPoint as="offset" />
            <Array as="points">
              <mxPoint x="2240" y="1960" />
            </Array>
          </mxGeometry>
        </mxCell>
        <mxCell id="exqZRgO2Eq1xU3M3Er-l-258" value="Return Status" style="html=1;verticalAlign=bottom;endArrow=open;dashed=1;endSize=8;curved=0;rounded=0;" edge="1" parent="1" source="exqZRgO2Eq1xU3M3Er-l-237" target="exqZRgO2Eq1xU3M3Er-l-242">
          <mxGeometry relative="1" as="geometry">
            <mxPoint x="2170" y="1989.43" as="sourcePoint" />
            <mxPoint x="2195" y="1949.43" as="targetPoint" />
            <Array as="points" />
          </mxGeometry>
        </mxCell>
        <mxCell id="exqZRgO2Eq1xU3M3Er-l-259" value="Return Pesan&lt;div&gt;Gagal&lt;/div&gt;" style="html=1;verticalAlign=bottom;endArrow=open;dashed=1;endSize=8;curved=0;rounded=0;" edge="1" parent="1" source="exqZRgO2Eq1xU3M3Er-l-242" target="exqZRgO2Eq1xU3M3Er-l-252">
          <mxGeometry relative="1" as="geometry">
            <mxPoint x="2185" y="2000" as="sourcePoint" />
            <mxPoint x="2080" y="2000" as="targetPoint" />
            <Array as="points">
              <mxPoint x="2130" y="1990" />
            </Array>
          </mxGeometry>
        </mxCell>
        <mxCell id="exqZRgO2Eq1xU3M3Er-l-260" value="Redirect View Daftar&amp;nbsp;&lt;span style=&quot;font-size: 12px; background-color: rgb(251, 251, 251);&quot;&gt;Produk&lt;/span&gt;" style="html=1;verticalAlign=bottom;endArrow=block;curved=0;rounded=0;labelBackgroundColor=default;labelPosition=center;verticalLabelPosition=top;align=center;" edge="1" parent="1" source="exqZRgO2Eq1xU3M3Er-l-242" target="exqZRgO2Eq1xU3M3Er-l-234">
          <mxGeometry x="-0.0028" width="80" relative="1" as="geometry">
            <mxPoint x="2085" y="1934.76" as="sourcePoint" />
            <mxPoint x="2020" y="2030" as="targetPoint" />
            <mxPoint as="offset" />
            <Array as="points" />
          </mxGeometry>
        </mxCell>
        <mxCell id="exqZRgO2Eq1xU3M3Er-l-261" value="Post Data" style="html=1;verticalAlign=bottom;endArrow=block;curved=0;rounded=0;labelBackgroundColor=default;labelPosition=center;verticalLabelPosition=top;align=center;" edge="1" parent="1" source="exqZRgO2Eq1xU3M3Er-l-233" target="exqZRgO2Eq1xU3M3Er-l-240">
          <mxGeometry x="0.1064" width="80" relative="1" as="geometry">
            <mxPoint x="1940" y="1820" as="sourcePoint" />
            <mxPoint x="2065" y="1820" as="targetPoint" />
            <mxPoint as="offset" />
            <Array as="points">
              <mxPoint x="2010" y="1820" />
            </Array>
          </mxGeometry>
        </mxCell>
        <mxCell id="exqZRgO2Eq1xU3M3Er-l-262" value="" style="html=1;points=[[0,0,0,0,5],[0,1,0,0,-5],[1,0,0,0,5],[1,1,0,0,-5]];perimeter=orthogonalPerimeter;outlineConnect=0;targetShapes=umlLifeline;portConstraint=eastwest;newEdgeStyle={&quot;curved&quot;:0,&quot;rounded&quot;:0};" vertex="1" parent="1">
          <mxGeometry x="1940" y="1350" width="10" height="30" as="geometry" />
        </mxCell>
        <mxCell id="exqZRgO2Eq1xU3M3Er-l-263" value="Pilih&amp;nbsp;&lt;span style=&quot;&quot;&gt;Tambah Data&lt;/span&gt;" style="html=1;verticalAlign=bottom;endArrow=block;curved=0;rounded=0;labelBackgroundColor=default;labelPosition=center;verticalLabelPosition=top;align=center;" edge="1" parent="1" source="exqZRgO2Eq1xU3M3Er-l-211" target="exqZRgO2Eq1xU3M3Er-l-213">
          <mxGeometry x="-0.0028" width="80" relative="1" as="geometry">
            <mxPoint x="1810" y="1400" as="sourcePoint" />
            <mxPoint x="2065" y="1400" as="targetPoint" />
            <mxPoint as="offset" />
            <Array as="points">
              <mxPoint x="1920" y="1400" />
            </Array>
          </mxGeometry>
        </mxCell>
        <mxCell id="exqZRgO2Eq1xU3M3Er-l-264" value="Form Tambah Data" style="html=1;verticalAlign=bottom;endArrow=open;dashed=1;endSize=8;curved=0;rounded=0;labelBackgroundColor=default;" edge="1" parent="1" source="exqZRgO2Eq1xU3M3Er-l-213" target="exqZRgO2Eq1xU3M3Er-l-211">
          <mxGeometry relative="1" as="geometry">
            <mxPoint x="1995" y="1429.72" as="sourcePoint" />
            <mxPoint x="1870" y="1429.72" as="targetPoint" />
            <Array as="points">
              <mxPoint x="1935" y="1420" />
            </Array>
          </mxGeometry>
        </mxCell>
        <mxCell id="exqZRgO2Eq1xU3M3Er-l-265" value="&lt;span style=&quot;&quot;&gt;Input Data&lt;/span&gt;" style="html=1;verticalAlign=bottom;endArrow=block;curved=0;rounded=0;labelBackgroundColor=default;labelPosition=center;verticalLabelPosition=top;align=center;" edge="1" parent="1" source="exqZRgO2Eq1xU3M3Er-l-211" target="exqZRgO2Eq1xU3M3Er-l-213">
          <mxGeometry x="-0.0028" width="80" relative="1" as="geometry">
            <mxPoint x="1825" y="1410" as="sourcePoint" />
            <mxPoint x="2080" y="1410" as="targetPoint" />
            <mxPoint as="offset" />
            <Array as="points">
              <mxPoint x="1930" y="1440" />
            </Array>
          </mxGeometry>
        </mxCell>
        <mxCell id="exqZRgO2Eq1xU3M3Er-l-266" value="Redirect View Daftar Produk" style="html=1;verticalAlign=bottom;endArrow=block;curved=0;rounded=0;labelBackgroundColor=default;labelPosition=center;verticalLabelPosition=top;align=center;" edge="1" parent="1" source="exqZRgO2Eq1xU3M3Er-l-218" target="exqZRgO2Eq1xU3M3Er-l-227">
          <mxGeometry x="-0.0028" width="80" relative="1" as="geometry">
            <mxPoint x="2215" y="1534.76" as="sourcePoint" />
            <mxPoint x="2325" y="1534.76" as="targetPoint" />
            <mxPoint as="offset" />
            <Array as="points">
              <mxPoint x="2070" y="1580" />
            </Array>
          </mxGeometry>
        </mxCell>
        <mxCell id="exqZRgO2Eq1xU3M3Er-l-267" value="User Super&amp;nbsp;&lt;div&gt;dan Admin&lt;/div&gt;" style="shape=umlLifeline;perimeter=lifelinePerimeter;html=1;container=1;dropTarget=0;collapsible=0;recursiveResize=0;outlineConnect=0;portConstraint=eastwest;newEdgeStyle={&quot;curved&quot;:0,&quot;rounded&quot;:0};participant=umlActor;labelPosition=center;verticalLabelPosition=top;align=center;verticalAlign=bottom;" vertex="1" parent="1">
          <mxGeometry x="1800" y="2120" width="20" height="340" as="geometry" />
        </mxCell>
        <mxCell id="exqZRgO2Eq1xU3M3Er-l-268" value="" style="html=1;points=[[0,0,0,0,5],[0,1,0,0,-5],[1,0,0,0,5],[1,1,0,0,-5]];perimeter=orthogonalPerimeter;outlineConnect=0;targetShapes=umlLifeline;portConstraint=eastwest;newEdgeStyle={&quot;curved&quot;:0,&quot;rounded&quot;:0};" vertex="1" parent="exqZRgO2Eq1xU3M3Er-l-267">
          <mxGeometry x="5" y="70" width="10" height="130" as="geometry" />
        </mxCell>
        <mxCell id="exqZRgO2Eq1xU3M3Er-l-269" value="View&lt;div&gt;Daftar Produk&lt;/div&gt;" style="shape=umlLifeline;perimeter=lifelinePerimeter;html=1;container=1;dropTarget=0;collapsible=0;recursiveResize=0;outlineConnect=0;portConstraint=eastwest;newEdgeStyle={&quot;curved&quot;:0,&quot;rounded&quot;:0};participant=umlBoundary;labelPosition=center;verticalLabelPosition=top;align=center;verticalAlign=bottom;" vertex="1" parent="1">
          <mxGeometry x="1930" y="2120" width="50" height="340" as="geometry" />
        </mxCell>
        <mxCell id="exqZRgO2Eq1xU3M3Er-l-270" value="" style="html=1;points=[[0,0,0,0,5],[0,1,0,0,-5],[1,0,0,0,5],[1,1,0,0,-5]];perimeter=orthogonalPerimeter;outlineConnect=0;targetShapes=umlLifeline;portConstraint=eastwest;newEdgeStyle={&quot;curved&quot;:0,&quot;rounded&quot;:0};" vertex="1" parent="exqZRgO2Eq1xU3M3Er-l-269">
          <mxGeometry x="20" y="70" width="10" height="150" as="geometry" />
        </mxCell>
        <mxCell id="exqZRgO2Eq1xU3M3Er-l-271" value="" style="html=1;points=[[0,0,0,0,5],[0,1,0,0,-5],[1,0,0,0,5],[1,1,0,0,-5]];perimeter=orthogonalPerimeter;outlineConnect=0;targetShapes=umlLifeline;portConstraint=eastwest;newEdgeStyle={&quot;curved&quot;:0,&quot;rounded&quot;:0};" vertex="1" parent="exqZRgO2Eq1xU3M3Er-l-269">
          <mxGeometry x="20" y="290" width="10" height="30" as="geometry" />
        </mxCell>
        <mxCell id="exqZRgO2Eq1xU3M3Er-l-272" value="Model&lt;div&gt;&lt;span style=&quot;background-color: initial;&quot;&gt;Produk&lt;/span&gt;&lt;/div&gt;" style="shape=umlLifeline;perimeter=lifelinePerimeter;html=1;container=1;dropTarget=0;collapsible=0;recursiveResize=0;outlineConnect=0;portConstraint=eastwest;newEdgeStyle={&quot;curved&quot;:0,&quot;rounded&quot;:0};participant=umlEntity;labelPosition=center;verticalLabelPosition=top;align=center;verticalAlign=bottom;" vertex="1" parent="1">
          <mxGeometry x="2170" y="2120" width="40" height="340" as="geometry" />
        </mxCell>
        <mxCell id="exqZRgO2Eq1xU3M3Er-l-273" value="" style="html=1;points=[[0,0,0,0,5],[0,1,0,0,-5],[1,0,0,0,5],[1,1,0,0,-5]];perimeter=orthogonalPerimeter;outlineConnect=0;targetShapes=umlLifeline;portConstraint=eastwest;newEdgeStyle={&quot;curved&quot;:0,&quot;rounded&quot;:0};" vertex="1" parent="exqZRgO2Eq1xU3M3Er-l-272">
          <mxGeometry x="15" y="230" width="10" height="40" as="geometry" />
        </mxCell>
        <mxCell id="exqZRgO2Eq1xU3M3Er-l-274" value="Controller&lt;div&gt;Produk&lt;br&gt;&lt;/div&gt;" style="shape=umlLifeline;perimeter=lifelinePerimeter;html=1;container=1;dropTarget=0;collapsible=0;recursiveResize=0;outlineConnect=0;portConstraint=eastwest;newEdgeStyle={&quot;curved&quot;:0,&quot;rounded&quot;:0};participant=umlControl;labelPosition=center;verticalLabelPosition=top;align=center;verticalAlign=bottom;" vertex="1" parent="1">
          <mxGeometry x="2050" y="2120" width="40" height="340" as="geometry" />
        </mxCell>
        <mxCell id="exqZRgO2Eq1xU3M3Er-l-275" value="" style="html=1;points=[[0,0,0,0,5],[0,1,0,0,-5],[1,0,0,0,5],[1,1,0,0,-5]];perimeter=orthogonalPerimeter;outlineConnect=0;targetShapes=umlLifeline;portConstraint=eastwest;newEdgeStyle={&quot;curved&quot;:0,&quot;rounded&quot;:0};" vertex="1" parent="exqZRgO2Eq1xU3M3Er-l-274">
          <mxGeometry x="15" y="220" width="10" height="70" as="geometry" />
        </mxCell>
        <mxCell id="exqZRgO2Eq1xU3M3Er-l-276" value="Akses View&lt;div&gt;Daftar Produk&lt;/div&gt;" style="html=1;verticalAlign=bottom;endArrow=block;curved=0;rounded=0;labelBackgroundColor=none;labelPosition=center;verticalLabelPosition=top;align=center;" edge="1" parent="1" source="exqZRgO2Eq1xU3M3Er-l-268" target="exqZRgO2Eq1xU3M3Er-l-270">
          <mxGeometry x="-0.0028" width="80" relative="1" as="geometry">
            <mxPoint x="1815" y="2189.5" as="sourcePoint" />
            <mxPoint x="1940" y="2189.5" as="targetPoint" />
            <mxPoint as="offset" />
            <Array as="points">
              <mxPoint x="1880" y="2190" />
            </Array>
          </mxGeometry>
        </mxCell>
        <mxCell id="exqZRgO2Eq1xU3M3Er-l-277" value="Tabel Data&amp;nbsp;&lt;span style=&quot;font-size: 12px; background-color: initial;&quot;&gt;Produk&lt;/span&gt;" style="html=1;verticalAlign=bottom;endArrow=open;dashed=1;endSize=8;curved=0;rounded=0;labelBackgroundColor=none;" edge="1" parent="1" source="exqZRgO2Eq1xU3M3Er-l-270" target="exqZRgO2Eq1xU3M3Er-l-268">
          <mxGeometry relative="1" as="geometry">
            <mxPoint x="1940" y="2210" as="sourcePoint" />
            <mxPoint x="1815" y="2210" as="targetPoint" />
            <Array as="points">
              <mxPoint x="1880" y="2230" />
            </Array>
          </mxGeometry>
        </mxCell>
        <mxCell id="exqZRgO2Eq1xU3M3Er-l-278" value="Klik &#39;Hapus&#39; Data Terpilih" style="html=1;verticalAlign=bottom;endArrow=block;curved=0;rounded=0;labelBackgroundColor=none;labelPosition=center;verticalLabelPosition=top;align=center;" edge="1" parent="1" source="exqZRgO2Eq1xU3M3Er-l-268" target="exqZRgO2Eq1xU3M3Er-l-270">
          <mxGeometry x="-0.0028" width="80" relative="1" as="geometry">
            <mxPoint x="1815" y="2250" as="sourcePoint" />
            <mxPoint x="1940" y="2250" as="targetPoint" />
            <mxPoint as="offset" />
            <Array as="points">
              <mxPoint x="1880" y="2260" />
            </Array>
          </mxGeometry>
        </mxCell>
        <mxCell id="exqZRgO2Eq1xU3M3Er-l-279" value="Post Data" style="html=1;verticalAlign=bottom;endArrow=block;curved=0;rounded=0;labelBackgroundColor=none;labelPosition=center;verticalLabelPosition=top;align=center;" edge="1" parent="1" source="exqZRgO2Eq1xU3M3Er-l-275">
          <mxGeometry x="-0.0028" width="80" relative="1" as="geometry">
            <mxPoint x="2070" y="2280" as="sourcePoint" />
            <mxPoint x="2190" y="2350" as="targetPoint" />
            <mxPoint as="offset" />
            <Array as="points">
              <mxPoint x="2130" y="2350" />
            </Array>
          </mxGeometry>
        </mxCell>
        <mxCell id="exqZRgO2Eq1xU3M3Er-l-280" value="Return Status" style="html=1;verticalAlign=bottom;endArrow=open;dashed=1;endSize=8;curved=0;rounded=0;" edge="1" parent="1" source="exqZRgO2Eq1xU3M3Er-l-273" target="exqZRgO2Eq1xU3M3Er-l-275">
          <mxGeometry relative="1" as="geometry">
            <mxPoint x="2170" y="2340" as="sourcePoint" />
            <mxPoint x="2045" y="2340" as="targetPoint" />
            <Array as="points">
              <mxPoint x="2130" y="2390" />
            </Array>
          </mxGeometry>
        </mxCell>
        <mxCell id="exqZRgO2Eq1xU3M3Er-l-281" value="Delete Data" style="html=1;verticalAlign=middle;endArrow=block;rounded=0;labelBackgroundColor=none;labelPosition=right;verticalLabelPosition=middle;align=left;edgeStyle=orthogonalEdgeStyle;" edge="1" parent="1" source="exqZRgO2Eq1xU3M3Er-l-273" target="exqZRgO2Eq1xU3M3Er-l-273">
          <mxGeometry x="-0.0028" width="80" relative="1" as="geometry">
            <mxPoint x="2190" y="2280" as="sourcePoint" />
            <mxPoint x="2300" y="2280" as="targetPoint" />
            <mxPoint as="offset" />
          </mxGeometry>
        </mxCell>
        <mxCell id="exqZRgO2Eq1xU3M3Er-l-282" value="Redirect View&lt;div&gt;&lt;span style=&quot;font-size: 12px; background-color: rgb(251, 251, 251);&quot;&gt;Daftar Produk&lt;/span&gt;&lt;/div&gt;" style="html=1;verticalAlign=bottom;endArrow=block;curved=0;rounded=0;labelBackgroundColor=default;labelPosition=center;verticalLabelPosition=top;align=center;" edge="1" parent="1" source="exqZRgO2Eq1xU3M3Er-l-275" target="exqZRgO2Eq1xU3M3Er-l-271">
          <mxGeometry x="-0.0028" width="80" relative="1" as="geometry">
            <mxPoint x="2187.5" y="2410" as="sourcePoint" />
            <mxPoint x="1960" y="2410" as="targetPoint" />
            <mxPoint as="offset" />
            <Array as="points" />
          </mxGeometry>
        </mxCell>
        <mxCell id="exqZRgO2Eq1xU3M3Er-l-283" value="Post Data" style="html=1;verticalAlign=bottom;endArrow=block;curved=0;rounded=0;labelBackgroundColor=default;labelPosition=center;verticalLabelPosition=top;align=center;" edge="1" parent="1" source="exqZRgO2Eq1xU3M3Er-l-270" target="exqZRgO2Eq1xU3M3Er-l-275">
          <mxGeometry x="0.1064" width="80" relative="1" as="geometry">
            <mxPoint x="1940" y="2260" as="sourcePoint" />
            <mxPoint x="2065" y="2260" as="targetPoint" />
            <mxPoint as="offset" />
            <Array as="points">
              <mxPoint x="2040" y="2340" />
            </Array>
          </mxGeometry>
        </mxCell>
        <mxCell id="exqZRgO2Eq1xU3M3Er-l-284" value="Return Pesan Konfirmasi" style="html=1;verticalAlign=bottom;endArrow=open;dashed=1;endSize=8;curved=0;rounded=0;labelBackgroundColor=none;" edge="1" parent="1" source="exqZRgO2Eq1xU3M3Er-l-270" target="exqZRgO2Eq1xU3M3Er-l-268">
          <mxGeometry relative="1" as="geometry">
            <mxPoint x="1950" y="2240" as="sourcePoint" />
            <mxPoint x="1825" y="2240" as="targetPoint" />
            <Array as="points">
              <mxPoint x="1880" y="2290" />
            </Array>
          </mxGeometry>
        </mxCell>
        <mxCell id="exqZRgO2Eq1xU3M3Er-l-285" value="Klik OK" style="html=1;verticalAlign=bottom;endArrow=block;curved=0;rounded=0;labelBackgroundColor=none;labelPosition=center;verticalLabelPosition=top;align=center;" edge="1" parent="1" source="exqZRgO2Eq1xU3M3Er-l-268" target="exqZRgO2Eq1xU3M3Er-l-270">
          <mxGeometry x="-0.0028" width="80" relative="1" as="geometry">
            <mxPoint x="1825" y="2270" as="sourcePoint" />
            <mxPoint x="1950" y="2270" as="targetPoint" />
            <mxPoint as="offset" />
            <Array as="points">
              <mxPoint x="1890" y="2320" />
            </Array>
          </mxGeometry>
        </mxCell>
      </root>
    </mxGraphModel>
  </diagram>
</mxfile>
